<?xml version="1.0" encoding="UTF-8" standalone="no"?>
<!-- Created with Inkscape (http://www.inkscape.org/) -->

<svg
   xmlns:dc="http://purl.org/dc/elements/1.1/"
   xmlns:cc="http://creativecommons.org/ns#"
   xmlns:rdf="http://www.w3.org/1999/02/22-rdf-syntax-ns#"
   xmlns:svg="http://www.w3.org/2000/svg"
   xmlns="http://www.w3.org/2000/svg"
   xmlns:sodipodi="http://sodipodi.sourceforge.net/DTD/sodipodi-0.dtd"
   xmlns:inkscape="http://www.inkscape.org/namespaces/inkscape"
   width="350"
   height="150"
   viewBox="0 0 350 150"
   id="svg4667"
   version="1.1"
   inkscape:version="0.91 r13725"
   sodipodi:docname="un-women.svg">
  <defs
     id="defs4669">
    <clipPath
       clipPathUnits="userSpaceOnUse"
       id="clipPath56">
      <path
         d="m 377.94,183.766 162.52,0 0,48.554 -162.52,0 0,-48.554 z"
         id="path58"
         inkscape:connector-curvature="0" />
    </clipPath>
  </defs>
  <sodipodi:namedview
     id="base"
     pagecolor="#ffffff"
     bordercolor="#666666"
     borderopacity="1.0"
     inkscape:pageopacity="0.0"
     inkscape:pageshadow="2"
     inkscape:zoom="0.83337585"
     inkscape:cx="155.8217"
     inkscape:cy="80.703005"
     inkscape:document-units="px"
     inkscape:current-layer="layer1"
     showgrid="false"
     units="px"
     inkscape:window-width="1280"
     inkscape:window-height="751"
     inkscape:window-x="0"
     inkscape:window-y="1"
     inkscape:window-maximized="1" />
  <metadata
     id="metadata4672">
    <rdf:RDF>
      <cc:Work
         rdf:about="">
        <dc:format>image/svg+xml</dc:format>
        <dc:type
           rdf:resource="http://purl.org/dc/dcmitype/StillImage" />
        <dc:title></dc:title>
      </cc:Work>
    </rdf:RDF>
  </metadata>
  <g
     inkscape:label="Layer 1"
     inkscape:groupmode="layer"
     id="layer1"
     transform="translate(0,-902.36216)">
    <g
       id="g6440"
       transform="translate(0,25.147181)">
      <g
         style="fill:#449ecc;fill-opacity:1"
         transform="matrix(2.2568705,0,0,-2.2568705,185.39515,948.37312)"
         id="g60">
        <path
           inkscape:connector-curvature="0"
           id="path62"
           style="fill:#449ecc;fill-opacity:1;fill-rule:nonzero;stroke:none"
           d="m 0,0 c -5.352,0 -8.625,2.989 -8.625,8.853 l 0,11.384 4.384,0 0,-11.271 c 0,-3.244 1.622,-4.924 4.297,-4.924 2.676,0 4.299,1.622 4.299,4.782 l 0,11.413 4.383,0 0,-11.242 C 8.738,2.961 5.352,0 0,0" />
      </g>
      <g
         style="fill:#449ecc;fill-opacity:1"
         transform="matrix(2.2568705,0,0,-2.2568705,242.88666,947.66446)"
         id="g64">
        <path
           inkscape:connector-curvature="0"
           id="path66"
           style="fill:#449ecc;fill-opacity:1;fill-rule:nonzero;stroke:none"
           d="m 0,0 -9.65,12.666 0,-12.666 -4.325,0 0,19.924 4.041,0 9.336,-12.267 0,12.267 4.327,0 L 3.729,0 0,0 Z" />
      </g>
      <g
         style="fill:#449ecc;fill-opacity:1"
         transform="matrix(2.2568705,0,0,-2.2568705,52.867196,1001.3283)"
         id="g68">
        <path
           inkscape:connector-curvature="0"
           id="path70"
           style="fill:#449ecc;fill-opacity:1;fill-rule:nonzero;stroke:none"
           d="M 0,0 -3.814,0 -8.311,13.036 -12.808,0 l -3.814,0 -6.803,20.063 4.697,0 4.127,-13.489 4.468,13.546 3.758,0 4.468,-13.546 4.127,13.489 4.583,0 L 0,0 Z" />
      </g>
      <g
         style="fill:#449ecc;fill-opacity:1"
         transform="matrix(2.2568705,0,0,-2.2568705,104.00111,978.52491)"
         id="g72">
        <path
           inkscape:connector-curvature="0"
           id="path74"
           style="fill:#449ecc;fill-opacity:1;fill-rule:nonzero;stroke:none"
           d="m 0,0 c 0,3.415 -2.504,6.26 -6.034,6.26 -3.53,0 -5.977,-2.788 -5.977,-6.203 l 0,-0.057 c 0,-3.415 2.505,-6.262 6.034,-6.262 3.529,0 5.977,2.79 5.977,6.205 L 0,0 Z m -6.034,-10.303 c -6.148,0 -10.56,4.582 -10.56,10.246 l 0,0.057 c 0,5.663 4.469,10.3 10.617,10.3 6.148,0 10.56,-4.58 10.56,-10.243 L 4.583,0 c 0,-5.664 -4.469,-10.303 -10.617,-10.303" />
      </g>
      <g
         style="fill:#449ecc;fill-opacity:1"
         transform="matrix(2.2568705,0,0,-2.2568705,153.85087,1001.0056)"
         id="g76">
        <path
           inkscape:connector-curvature="0"
           id="path78"
           style="fill:#449ecc;fill-opacity:1;fill-rule:nonzero;stroke:none"
           d="m 0,0 0,13.007 -5.607,-8.51 -0.114,0 -5.55,8.425 0,-12.922 -4.298,0 0,19.921 4.725,0 5.237,-8.422 5.237,8.422 4.725,0 L 4.355,0 0,0 Z" />
      </g>
      <g
         style="fill:#449ecc;fill-opacity:1"
         transform="matrix(2.2568705,0,0,-2.2568705,171.32356,1001.0056)"
         id="g80">
        <path
           inkscape:connector-curvature="0"
           id="path82"
           style="fill:#449ecc;fill-opacity:1;fill-rule:nonzero;stroke:none"
           d="m 0,0 0,19.921 15.03,0 0,-3.898 -10.675,0 0,-4.04 9.391,0 0,-3.9 -9.391,0 0,-4.184 10.818,0 L 15.173,0 0,0 Z" />
      </g>
      <g
         style="fill:#449ecc;fill-opacity:1"
         transform="matrix(2.2568705,0,0,-2.2568705,242.75577,1001.0056)"
         id="g84">
        <path
           inkscape:connector-curvature="0"
           id="path86"
           style="fill:#449ecc;fill-opacity:1;fill-rule:nonzero;stroke:none"
           d="m 0,0 -9.65,12.666 0,-12.666 -4.326,0 0,19.921 4.042,0 9.336,-12.264 0,12.264 4.325,0 L 3.727,0 0,0 Z" />
      </g>
      <g
         style="fill:#449ecc;fill-opacity:1"
         transform="matrix(2.2568705,0,0,-2.2568705,142.48075,943.72622)"
         id="g88">
        <path
           inkscape:connector-curvature="0"
           id="path90"
           style="fill:#449ecc;fill-opacity:1;fill-rule:nonzero;stroke:none"
           d="m 0,0 c -1.333,0.607 -2.876,1.286 -4.435,0.709 -0.787,0.256 -1.817,0.256 -2.603,0 -1.373,-0.624 -3.244,-1.567 -4.694,-0.522 0.273,-0.328 0.568,-0.484 0.881,-0.711 0.936,-0.606 2.285,-0.545 3.251,-0.055 0.888,0.375 1.567,1.491 2.696,1.14 C -5.862,0.078 -6.742,-0.5 -7.537,-1.326 l 0.483,-0.412 c 0.699,0.927 1.644,1.699 2.658,2.151 0.982,-0.476 1.878,-1.294 2.619,-2.114 l 0.483,0.414 c -0.778,0.756 -1.683,1.365 -2.619,1.848 0.242,0.063 0.538,0.046 0.788,0.023 1.013,-0.444 1.792,-1.332 2.939,-1.465 1.216,-0.196 2.299,0.296 3.047,1.184 L 2.285,0 C 1.605,-0.305 0.695,-0.226 0,0 m -11.225,3.647 c 0.601,-0.701 0.624,-1.628 1.458,-2.204 0.32,-0.281 0.749,-0.336 1.107,-0.485 -0.398,-0.038 -0.765,0.124 -1.162,0.149 -1.342,0.163 -2.876,-0.008 -3.858,1.082 0.444,-0.779 1.231,-1.458 2.058,-1.722 1.558,-0.591 2.971,0.279 4.458,0.413 -1.73,0.078 -2.666,1.964 -4.061,2.767 M 2.301,3.742 C 1.405,3.156 0.632,2.159 -0.186,1.52 -0.639,1.176 -1.177,1.075 -1.707,0.92 -0.538,0.833 0.437,0.28 1.661,0.358 2.971,0.413 4.17,1.176 4.787,2.338 3.883,1.262 2.433,1.325 1.099,1.2 0.656,1.145 0.218,1.013 -0.226,1.013 -0.21,1.028 -0.195,1.06 -0.171,1.052 1.287,1.176 1.7,2.759 2.301,3.742 m -6.626,0.935 0.077,-0.133 -0.016,-0.99 c 0.29,0.109 0.686,0.102 0.953,0.149 -0.157,0.155 -0.39,0.14 -0.453,0.373 -0.11,0.156 0.046,0.319 0.037,0.453 -0.186,0.086 -0.466,-0.025 -0.598,0.148 M -9.073,4.957 -9.939,4.061 C -8.457,2.736 -6.688,2.019 -4.7,1.895 l -0.054,0.092 c 0.015,0.391 -0.031,0.804 0.039,1.177 L -4.731,3.141 C -6.392,3.187 -7.904,3.803 -9.073,4.957 M 0.134,5.035 C -0.038,4.801 -0.272,4.583 -0.522,4.436 -1.333,4.154 -1.41,3.25 -2.206,2.953 -2.518,2.829 -2.696,3.234 -2.977,3.296 -3.399,3.227 -3.835,3.11 -4.264,3.18 l 0,-1.309 0.055,0.038 C -2.198,1.995 -0.381,2.791 1.03,4.114 0.71,4.42 0.367,4.732 0.134,5.035 m -7.656,0.694 c 0,-0.133 0.18,-0.139 0.109,-0.304 C -7.678,5.261 -7.997,5.378 -8.255,5.183 -8.49,5.058 -8.683,5.331 -8.817,5.315 -7.678,4.334 -6.344,3.68 -4.81,3.609 L -4.715,3.554 C -4.778,3.928 -4.754,4.364 -4.731,4.755 -5.776,4.692 -6.719,5.128 -7.522,5.729 M -7.654,5.877 -7.562,5.76 -7.654,5.877 Z m -5.238,0.257 0.225,-0.576 c 0.218,-1.294 0.321,-2.721 1.498,-3.539 l -0.018,-0.017 c -0.38,0.165 -0.668,0.484 -1.013,0.694 -1.106,0.717 -2.634,1.037 -3.258,2.41 0.171,-1.005 0.859,-1.903 1.683,-2.526 0.991,-0.873 2.371,-0.804 3.58,-1.154 -0.445,0.342 -0.695,0.733 -0.897,1.215 -0.445,1.226 -0.835,2.503 -1.8,3.493 m 11.863,0.039 0,-0.015 C -1.613,5.745 -0.748,5.729 -0.731,5.371 -0.818,5.2 -1.13,5.027 -0.935,4.824 -0.873,4.755 -0.966,4.7 -0.99,4.637 l 0.804,0.678 C -0.288,5.245 -0.413,5.291 -0.467,5.386 -0.458,5.737 -0.879,5.892 -1.029,6.173 M 3.968,6.266 3.313,5.409 C 2.433,4.192 2.533,2.531 1.31,1.495 1.941,1.699 2.635,1.784 3.29,1.924 4.764,2.299 6.316,3.749 6.525,5.261 6.26,4.63 5.708,4.162 5.146,3.796 4.18,3.343 3.197,2.829 2.378,2.113 l -0.093,0 0.055,0.076 C 3.751,3.126 3.369,4.935 3.968,6.266 M -6.774,7.257 C -7.023,6.953 -7.32,6.664 -7.614,6.416 l 0.052,0 c 0.688,-0.594 1.551,-1.007 2.363,-1.139 -0.297,0.038 -0.413,0.327 -0.546,0.545 -0.077,0.181 0.195,0.219 0.149,0.405 0.1,0.165 0.257,0.258 0.451,0.281 -0.093,-0.015 -0.188,-0.03 -0.28,-0.053 -0.491,0.162 -0.99,0.382 -1.349,0.802 m 3.983,0.132 C -2.876,7.343 -2.947,7.343 -2.992,7.241 -3.094,7.108 -3.219,7.248 -3.311,7.297 -3.281,7.257 -3.211,7.163 -3.297,7.108 -3.399,7 -3.492,7.157 -3.593,7.186 -3.648,6.845 -3.773,7.28 -3.952,7.202 -4.029,7.397 -4.163,7.163 -4.287,7.186 -4.381,7.108 -4.388,6.883 -4.568,6.906 -4.607,6.797 -4.754,6.837 -4.771,6.758 -4.684,6.657 -4.568,6.704 -4.474,6.72 c 0.149,0.131 0.335,0.046 0.507,0.069 -0.015,-0.281 0.311,-0.069 0.413,-0.242 0.117,0.008 0.117,0.126 0.163,0.211 0.242,0.039 0.492,0.187 0.625,0.375 0.03,0.069 0.077,0.218 -0.025,0.256 m -0.443,0.188 c 0.093,0.125 0.296,0.101 0.335,0.241 C -3.072,7.849 -3.258,7.726 -3.234,7.577 M -5.651,8.418 -6.4,7.577 c 0.429,-0.329 0.928,-0.584 1.483,-0.671 -0.009,0.149 -0.009,0.296 0.068,0.413 0.078,0.047 0.195,-0.022 0.266,0.054 -0.008,0.071 -0.054,0.071 -0.094,0.134 -0.046,0.108 0,0.209 0.015,0.279 0.031,0.055 -0.061,0.179 0.04,0.22 C -4.864,7.888 -5.082,8.051 -5.293,8.122 -5.41,8.215 -5.62,8.239 -5.651,8.418 M -0.639,8.403 C -0.865,8.574 -0.818,8.248 -1.013,8.27 -1.083,8.286 -1.098,8.373 -1.106,8.444 -1.122,8.263 -1.261,8.131 -1.364,7.99 -1.723,8.091 -1.629,7.584 -1.987,7.694 -1.94,7.553 -1.784,7.716 -1.707,7.67 -1.644,7.702 -1.661,7.765 -1.629,7.802 -1.589,7.95 -1.41,8.006 -1.27,7.95 -1.192,7.826 -1.169,7.67 -1.177,7.522 -1.261,7.46 -1.261,7.358 -1.254,7.257 -1.364,7.078 -1.317,6.695 -1.644,6.735 -1.987,6.86 -2.362,6.953 -2.736,6.962 l 0,-0.079 c 0.251,-0.094 0.53,-0.094 0.734,-0.28 0.218,0.023 0.49,-0.033 0.654,0.092 0.024,0.156 0.087,0.298 0.187,0.413 0.14,-0.014 0.109,-0.202 0.171,-0.297 0.413,0.524 0.772,1.022 0.914,1.662 -0.204,0.014 -0.351,-0.1 -0.563,-0.07 m -13.002,0.07 c 0.093,-0.514 -0.07,-0.966 -0.149,-1.434 -0.266,-0.896 -0.132,-1.95 0.391,-2.681 -0.172,0.084 -0.281,0.287 -0.391,0.466 -0.646,1.24 -2.275,1.942 -2.417,3.43 -0.007,-0.538 -0.007,-1.107 0.156,-1.59 0.453,-1.668 2.293,-2.526 3.532,-3.368 -0.88,1.52 -0.413,3.587 -1.122,5.177 m 10.928,0.022 c -0.17,-0.241 0.164,-0.225 0.188,-0.428 0.04,0 0.084,-0.016 0.11,0.017 -0.026,0.085 -0.016,0.179 -0.093,0.241 -0.134,0 -0.134,0.17 -0.205,0.17 M 4.716,8.629 C 3.976,7.03 4.514,4.911 3.611,3.39 L 3.759,3.515 C 5.512,4.474 7.624,6.088 7.273,8.444 7.243,8.122 7.14,7.833 6.994,7.56 6.307,6.493 5.138,5.62 4.559,4.513 4.546,4.474 4.491,4.45 4.467,4.489 L 4.584,4.637 C 5.41,5.831 4.671,7.297 4.716,8.629 M -6.04,8.777 c -0.025,-0.11 -0.11,-0.194 -0.173,-0.282 0.11,0.048 0.173,0.212 0.297,0.204 L -6.04,8.777 Z M -7.351,9.096 -7.281,8.98 C -7.187,8.59 -6.953,8.263 -6.758,7.91 L -6.4,8.286 c -0.008,0.045 0.016,0.101 -0.015,0.132 -0.071,0.094 -0.024,0.267 -0.116,0.32 -0.031,-0.086 0.069,-0.133 0.022,-0.203 -0.116,0.048 -0.241,0.102 -0.303,0.242 0.023,0.18 -0.109,0.047 -0.205,0.132 -0.006,0.194 -0.248,0.071 -0.334,0.187 m -3.391,0.499 0.04,-0.055 c 0.038,-0.56 0.196,-1.107 0.24,-1.644 0.071,0.047 0.025,0.171 0.117,0.171 0.033,0.264 0.071,0.57 0.242,0.805 0.249,0.007 0.259,0.342 0.523,0.317 0.062,-0.045 0.148,-0.108 0.171,-0.186 -0.133,0.156 -0.139,0.405 -0.077,0.592 -0.39,-0.055 -0.859,-0.055 -1.256,0 m -1.645,-0.014 c 0.086,-1.989 0.82,-3.727 2.113,-5.201 0.289,0.304 0.608,0.647 0.92,0.897 -0.157,0.101 -0.257,0.281 -0.413,0.412 -0.194,0.04 -0.328,0.227 -0.375,0.391 0.009,-0.023 -0.023,-0.039 -0.039,-0.053 -0.179,-0.087 -0.234,0.131 -0.351,0.2 -0.108,0.056 -0.023,0.304 -0.21,0.211 -0.109,0.179 -0.311,0.165 -0.389,0.373 L -11.21,6.68 c -0.14,0.007 -0.24,0.18 -0.319,0.265 -0.288,-0.085 -0.172,0.312 -0.336,0.444 -0.062,0.25 0.016,0.484 0.148,0.678 0.086,0.078 0.25,0.017 0.281,-0.038 0.15,-0.055 0.054,0.116 0.134,0.148 0.21,0.179 0.311,-0.071 0.428,-0.203 -0.172,0.499 -0.281,1.084 -0.257,1.621 -0.398,-0.055 -0.85,-0.039 -1.256,-0.014 m 3.276,0.039 c 0.085,-0.283 0.178,-0.586 0.108,-0.898 0,0.141 0.304,0.281 0.062,0.405 0.093,0.143 0.023,0.438 0.202,0.454 C -8.878,9.55 -8.987,9.55 -9.111,9.62 M 0.602,9.636 C 0.647,9.479 0.554,9.331 0.562,9.167 0.398,8.894 0.772,8.824 0.67,8.568 0.602,8.512 0.531,8.52 0.445,8.551 0.25,7.786 -0.132,7.086 -0.678,6.478 l -0.053,0 c 0.138,-0.086 0.24,-0.281 0.396,-0.32 l 0,0.108 c 0.032,0.025 0.047,0.078 0.094,0.055 C 0.062,6.227 0.086,5.808 0.111,5.612 0.905,6.446 1.396,7.436 1.645,8.512 1.732,8.872 1.684,9.307 1.832,9.62 1.427,9.595 0.983,9.573 0.602,9.636 M 2.207,9.658 2.245,9.581 C 2.175,7.935 1.497,6.431 0.445,5.315 0.74,5.051 1.076,4.707 1.35,4.42 2.386,5.612 3.095,6.953 3.345,8.473 3.431,8.863 3.407,9.284 3.516,9.658 3.134,9.55 2.682,9.62 2.262,9.595 L 2.207,9.658 Z M -0.584,9.674 -0.375,9.432 C -0.381,9.159 -0.007,9.074 0.015,8.792 0.095,9.05 0.086,9.337 0.165,9.595 -0.076,9.62 -0.381,9.54 -0.584,9.674 m 0.133,0.39 0.093,0 -0.093,0 z m -7.671,0.155 c -0.289,-0.093 0,-0.366 -0.016,-0.545 C -8.169,9.525 -8.318,9.642 -8.405,9.581 -8.365,9.337 -8.566,9.291 -8.739,9.245 -8.795,9.081 -8.613,9.003 -8.699,8.847 -8.49,8.637 -8.326,8.379 -8.365,8.084 -8.215,7.873 -8.255,7.553 -8.215,7.28 -8.091,7.157 -8.021,6.968 -8.028,6.774 -8.021,6.673 -8.131,6.642 -8.193,6.603 -8.271,6.508 -8.138,6.555 -8.138,6.478 L -7.094,7.56 C -7.459,7.981 -7.747,8.543 -7.856,9.127 L -7.99,9.206 C -8.013,9.058 -8.005,8.847 -8.138,8.792 c -0.07,0.063 -0.211,0.094 -0.211,0.226 0.039,0.085 0.11,0.032 0.173,0.04 -0.009,0.069 0.007,0.14 0.015,0.203 0.023,0.085 -0.125,0.147 -0.015,0.225 0.093,0.009 0.132,-0.101 0.202,-0.149 l 0.187,0.095 c -0.054,0.179 0.046,0.46 -0.016,0.655 -0.023,0.156 -0.194,0.124 -0.319,0.132 m 3.329,1.005 0.022,-0.016 c 0.024,-0.117 0.109,-0.296 0,-0.374 C -4.91,10.647 -5.246,10.687 -5.293,10.439 -5.658,10.328 -5.519,9.877 -5.635,9.595 -5.869,9.54 -5.784,9.822 -5.893,9.916 L -5.947,9.845 C -6.305,10.118 -6.236,9.532 -6.453,9.486 -6.204,9.432 -5.994,9.573 -5.745,9.581 -5.73,9.55 -5.667,9.532 -5.69,9.486 l 0.039,0 c 0.055,0.054 0.062,0.125 0.055,0.204 0.023,0.078 0.117,0.125 0.186,0.078 C -5.432,9.69 -5.379,9.627 -5.316,9.595 L -5.448,9.408 C -5.519,9.331 -5.432,9.119 -5.612,9.127 -5.651,9.119 -5.683,9.152 -5.667,9.189 l -0.039,0 0.094,-0.171 c 0.11,0.009 0.085,0.204 0.226,0.227 0.125,0.03 0.14,0.179 0.125,0.295 0.163,0.143 0.366,0.055 0.546,0.08 C -4.67,9.573 -4.56,9.556 -4.583,9.47 -4.513,9.331 -4.631,9.174 -4.715,9.058 -4.677,8.98 -4.771,8.917 -4.771,8.833 -4.917,8.676 -5.082,8.746 -5.277,8.699 c 0.25,-0.17 0.515,-0.281 0.842,-0.255 0.312,-0.026 0.164,0.372 0.389,0.497 0.133,0.016 0.251,-0.016 0.398,0.024 0.062,0.116 0.07,0.257 0.094,0.388 -0.134,0.064 -0.086,0.197 -0.094,0.305 -0.079,0.095 -0.07,0.265 -0.226,0.281 -0.031,0.086 0.062,0.125 0.054,0.202 0.234,0.086 -0.124,0.226 0.025,0.359 -0.266,0.046 -0.328,0.467 -0.656,0.334 -0.077,0.11 -0.28,0.158 -0.28,0.321 0.023,0.116 0.289,0.069 0.257,0.053 -0.017,0.025 -0.046,0.041 -0.039,0.072 -0.1,0.007 -0.218,0 -0.28,-0.056 m -11.108,0.492 c -0.406,-0.936 -0.384,-2.176 -0.079,-3.148 0.264,-1.008 1.224,-1.708 1.722,-2.581 -0.085,0.365 -0.069,0.824 -0.015,1.199 0.327,1.301 0.841,2.557 0.764,4 -0.195,-1.037 -1.123,-1.769 -1.232,-2.838 -0.069,-0.438 0.039,-0.865 0.093,-1.254 -0.099,0.195 -0.195,0.42 -0.209,0.671 -0.156,1.402 -1.286,2.431 -1.044,3.951 M 6.939,11.88 C 7.156,10.617 6.393,9.665 6.08,8.568 5.909,8.145 5.979,7.608 5.723,7.241 5.708,7.452 5.824,7.654 5.84,7.882 6.034,9.291 4.81,10.126 4.53,11.318 4.514,10.999 4.537,10.695 4.584,10.406 4.655,8.917 5.629,7.709 5.348,6.158 5.629,6.526 5.84,6.899 6.174,7.257 7.297,8.426 7.586,10.383 6.939,11.88 m -11.71,0.895 c -0.654,-0.093 -1.269,-0.335 -1.738,-0.841 0.154,-0.031 0.312,-0.093 0.429,-0.202 0.04,-0.078 -0.07,-0.087 -0.078,-0.133 0.102,-0.148 0.109,0.031 0.211,0.055 0.094,-0.095 0.178,-0.164 0.312,-0.095 0.07,-0.116 0.179,-0.006 0.264,-0.016 0.032,0.095 0.164,0.173 0.11,0.282 0.046,0.086 0.07,0.226 0.188,0.226 -0.072,-0.366 0.272,0 0.373,-0.171 -0.101,0.265 -0.023,0.63 -0.071,0.895 m 0.507,0.024 0.031,-0.842 0.32,-0.116 c 0.093,0.165 0.265,0.203 0.374,0.342 0.102,0.048 0.102,-0.078 0.148,-0.117 0.063,-0.381 -0.359,-0.553 -0.591,-0.708 l 0.093,0 c 0.241,0.249 0.381,-0.312 0.631,-0.056 0.047,0.321 0.499,0.281 0.6,0.601 -0.078,-0.078 -0.117,0.008 -0.186,0.031 0.022,0.11 0.17,0.179 0.241,0.249 -0.506,0.314 -1.06,0.523 -1.661,0.616 m -3.618,0.149 C -8.146,12.62 -8.405,12.262 -8.59,11.88 -8.894,11.318 -8.979,10.673 -9.096,10.032 l 0.506,0.016 c -0.085,0.101 -0.07,0.241 -0.07,0.374 0.117,0.251 0.164,0.694 0.538,0.669 0.179,0.04 -0.009,0.18 0.132,0.25 0.266,0.04 0.336,0.289 0.561,0.405 0.211,0.026 0.257,0.32 0.468,0.344 -0.359,0.249 -0.601,0.562 -0.921,0.858 m 6.776,0.038 c -0.36,-0.421 -0.827,-0.864 -1.178,-1.27 0.025,-0.054 0.086,-0.117 0.095,-0.093 0.092,0.117 0.022,0.412 0.28,0.35 0.257,-0.086 0.483,-0.062 0.764,-0.093 0.155,-0.086 0.179,-0.273 0.319,-0.352 0.064,-0.069 -0.024,-0.132 -0.053,-0.187 0.029,-0.031 0.061,-0.061 0.077,-0.092 0.078,0.069 0.188,0.163 0.335,0.124 0.148,-0.009 0.187,-0.218 0.32,-0.242 0.062,-0.078 -0.039,-0.156 -0.094,-0.187 0.031,-0.148 -0.14,-0.195 -0.078,-0.336 0.078,-0.014 0.155,0.024 0.187,0.079 0.297,0.218 0.063,0.499 0.016,0.764 -0.117,0.242 -0.368,0.289 -0.562,0.468 0.009,0.078 0.054,0.163 0.117,0.203 -0.006,0.342 -0.358,0.576 -0.545,0.864 m -7.967,1.161 0,-0.077 c -0.991,-1.129 -1.543,-2.494 -1.645,-4.022 0.406,-0.009 0.848,0.016 1.232,-0.016 l -0.039,0.055 c 0.078,1.207 0.507,2.308 1.332,3.179 -0.327,0.266 -0.63,0.571 -0.88,0.881 m 4.786,0.296 c 0.063,-0.364 0.046,-0.793 0.023,-1.177 0.725,-0.053 1.498,-0.349 2.02,-0.826 0.272,0.282 0.576,0.657 0.88,0.826 -0.857,0.68 -1.817,1.101 -2.923,1.177 m -0.444,0.017 -0.04,-0.031 c -1.076,-0.062 -1.971,-0.539 -2.806,-1.186 0.32,-0.211 0.576,-0.537 0.881,-0.818 0.523,0.499 1.217,0.796 1.942,0.818 -0.024,0.359 -0.039,0.836 0.023,1.217 m -9.978,0.281 c -0.451,-0.539 -0.756,-1.184 -0.914,-1.87 -0.303,-1.436 0.562,-2.543 0.749,-3.853 0.251,1.644 1.982,2.682 2.074,4.398 -0.506,-0.929 -1.738,-1.467 -1.963,-2.565 0,-0.178 -0.055,-0.351 -0.094,-0.523 l -0.038,0.039 0.061,0.709 c 0.211,1.271 -0.53,2.581 0.125,3.665 M 5.629,14.912 C 6.205,14.07 5.879,12.886 5.84,11.903 5.862,11.426 5.941,10.953 5.909,10.476 5.84,10.662 5.824,10.867 5.777,11.061 5.544,12.129 4.288,12.652 3.78,13.549 3.859,13.243 3.914,12.941 4.024,12.652 4.46,11.388 5.769,10.538 5.949,9.167 c 0.117,1.309 1.036,2.354 0.693,3.781 -0.178,0.716 -0.475,1.419 -1.013,1.964 m -15.81,0.295 -0.038,0.119 c -1.335,-1.451 -2.082,-3.282 -2.184,-5.278 l 1.272,-0.016 c -0.047,0.407 0.062,0.797 0.11,1.192 0.27,1.178 0.778,2.292 1.682,3.166 l -0.842,0.817 z M 1.232,15.341 0.413,14.46 0.281,14.443 c 0.109,0 0.078,-0.124 0.148,-0.169 0.343,-0.242 0.499,-0.587 0.788,-0.843 0.109,-0.265 0.388,-0.437 0.388,-0.764 0.407,-0.787 0.594,-1.714 0.64,-2.619 0.406,0.047 0.865,0.063 1.256,0.054 l -0.04,0.039 c -0.078,2.026 -0.904,3.758 -2.229,5.2 m -9.986,-0.937 c 0.312,-0.217 0.616,-0.559 0.872,-0.841 0.828,0.804 1.935,1.295 3.128,1.31 -0.024,0.39 -0.024,0.811 0,1.202 -1.514,-0.118 -2.87,-0.664 -4,-1.671 m 8.023,1.708 c -0.064,-0.015 -0.041,-0.116 -0.017,-0.155 0.203,-0.016 0.203,-0.358 0.445,-0.218 l -0.055,0.24 c -0.061,0.158 -0.273,0.078 -0.373,0.133 m -3.572,0 c 0.062,-0.389 0.039,-0.857 0.016,-1.239 0.99,-0.015 1.925,-0.32 2.698,-0.896 -0.072,0.038 -0.164,0.194 -0.15,0.297 l 0.032,0 c 0.016,0.139 -0.195,0.201 -0.125,0.342 0.188,-0.015 0.327,-0.273 0.428,-0.414 0.539,0.008 0.227,-0.63 0.632,-0.825 0.094,-0.048 -0.03,-0.242 0.118,-0.227 0.126,-0.102 0.279,-0.209 0.257,-0.375 C -0.351,12.497 -0.125,12.863 0,12.682 0.111,12.596 -0.076,12.542 -0.054,12.44 0.015,12.41 0.079,12.51 0.134,12.425 0.157,12.331 0.086,12.293 0.038,12.238 -0.007,12.075 0.187,12.167 0.242,12.09 0.329,11.903 0.398,11.623 0.258,11.412 0.452,11.202 0.227,10.983 0.187,10.78 0.048,10.647 0.024,10.335 -0.241,10.406 -0.303,10.298 -0.203,10.173 -0.266,10.087 l 0.469,-0.023 c -0.264,0.375 0.078,0.732 0.187,1.067 0.055,0.024 0.126,0.14 0.172,0.024 -0.024,-0.156 -0.038,-0.326 -0.055,-0.454 0.117,-0.177 0.07,-0.427 0.11,-0.637 l 1.2,0.023 c -0.085,0.794 -0.25,1.558 -0.585,2.244 -0.086,-0.03 -0.187,-0.093 -0.28,-0.038 -0.133,0.18 -0.242,0.397 -0.428,0.545 -0.157,0 -0.266,0.125 -0.39,0.203 -0.273,-0.009 -0.172,0.39 -0.437,0.336 -0.142,0.069 -0.242,0.139 -0.281,0.303 -0.009,0.187 -0.024,0.421 -0.204,0.562 -0.1,0.054 -0.193,-0.015 -0.264,-0.078 -0.148,-0.094 -0.209,0.07 -0.202,0.188 -0.165,0.123 0.007,0.264 -0.079,0.411 -0.233,0.188 -0.124,0.538 -0.444,0.695 -0.515,0.248 -1.06,0.405 -1.63,0.521 -0.294,0.048 -0.615,0.056 -0.896,0.133 m -9.955,-0.919 c -0.63,-0.928 -0.118,-2.214 -0.297,-3.313 0.228,0.451 0.664,0.88 1.046,1.2 0.881,0.57 1.67,1.473 1.699,2.486 -0.467,-1.199 -2.012,-1.356 -2.393,-2.634 l -0.039,0 c 0.569,1.06 0.25,2.557 1.333,3.344 -0.569,-0.164 -1.051,-0.585 -1.349,-1.083 m 18.094,1.231 c 0.827,-0.545 0.772,-1.551 1.068,-2.37 0.078,-0.343 0.288,-0.654 0.31,-0.997 -0.443,1.286 -1.94,1.427 -2.486,2.642 L 2.901,14.99 c 0.42,-1.38 2.065,-1.715 2.688,-2.964 -0.193,0.906 0.148,1.849 -0.124,2.737 -0.226,0.765 -0.857,1.435 -1.629,1.661 m -7.164,0.717 -0.561,-0.248 c -0.063,-0.033 -0.258,0.069 -0.226,-0.095 0.108,-0.07 0.218,-0.147 0.351,-0.163 0.35,0.156 0.772,-0.101 1.068,0.225 -0.086,0.234 -0.398,0.242 -0.632,0.281 m -7.321,0.258 c -0.74,-0.297 -1.543,-0.539 -2.096,-1.231 -0.428,-0.562 -0.561,-1.233 -0.779,-1.872 l 0.654,0.562 c 0.999,0.693 1.255,1.824 2.221,2.541 m 12.216,0.117 0.601,-0.602 c 0.607,-0.935 1.458,-1.86 2.299,-2.454 -0.179,0.375 -0.218,0.811 -0.406,1.186 -0.373,1.044 -1.535,1.55 -2.494,1.87 m -11.506,-1.91 0.921,-0.881 c 1.153,1.121 2.634,1.762 4.264,1.818 -0.062,0.388 -0.039,0.834 -0.017,1.23 -1.979,-0.11 -3.701,-0.859 -5.168,-2.167 m 5.652,2.206 c 0.031,-0.311 0.031,-0.75 0,-1.108 0.008,0.056 0.063,0.056 0.094,0.078 0.109,-0.039 0.109,-0.17 0.078,-0.264 l -0.024,0 c 0.561,0.039 1.1,-0.101 1.614,-0.258 0.538,-0.07 1.005,-0.717 1.535,-0.374 0.149,-0.163 0.406,-0.007 0.483,-0.264 0.204,-0.04 0.312,-0.244 0.453,-0.374 -0.015,-0.188 0.156,-0.274 0.219,-0.413 l 0,0.023 c 0.179,0.319 0.459,0.6 0.771,0.764 -1.115,1.06 -2.479,1.746 -3.969,2.019 -0.404,0.085 -0.856,0.063 -1.254,0.171 M 2.876,13.79 C 4.46,11.179 4.132,7.202 2.222,4.848 0.111,2.057 -3.375,0.849 -6.812,1.801 c -3.127,0.817 -5.675,3.803 -5.964,7.032 -0.39,3.42 1.2,6.54 4.093,8.245 2.23,1.372 5.666,1.529 7.99,0.227 1.411,-0.686 2.83,-2.089 3.569,-3.515" />
      </g>
      <g
         style="fill:#449ecc;fill-opacity:1"
         transform="matrix(2.2568705,0,0,-2.2568705,312.82934,916.62572)"
         id="g322">
        <path
           inkscape:connector-curvature="0"
           id="path324"
           style="fill:#449ecc;fill-opacity:1;fill-rule:nonzero;stroke:none"
           d="m 0,0 c 2.623,0.113 5.11,0.472 7.364,1.018 l 0,5.14 L 0,6.158 0,0 Z" />
      </g>
      <g
         style="fill:#449ecc;fill-opacity:1"
         transform="matrix(2.2568705,0,0,-2.2568705,346.27842,915.88547)"
         id="g326">
        <path
           inkscape:connector-curvature="0"
           id="path328"
           style="fill:#449ecc;fill-opacity:1;fill-rule:nonzero;stroke:none"
           d="m 0,0 c -1.299,-0.658 -2.742,-1.226 -4.279,-1.714 l 0,-5.686 c 2.428,1.786 4.451,4.081 5.928,6.726 l 0,1.614 C 1.125,0.611 0.578,0.295 0,0" />
      </g>
      <g
         style="fill:#449ecc;fill-opacity:1"
         transform="matrix(2.2568705,0,0,-2.2568705,329.45345,936.9511)"
         id="g330">
        <path
           inkscape:connector-curvature="0"
           id="path332"
           style="fill:#449ecc;fill-opacity:1;fill-rule:nonzero;stroke:none"
           d="m 0,0 c 0,0.007 -0.002,0.015 -0.002,0.021 l 0,6.74 C -2.301,6.258 -4.778,5.946 -7.366,5.837 l 0,-7.91 C -4.743,-1.829 -2.256,-1.114 0,0" />
      </g>
      <g
         style="fill:#449ecc;fill-opacity:1"
         transform="matrix(2.2568705,0,0,-2.2568705,336.62127,902.72791)"
         id="g334">
        <path
           inkscape:connector-curvature="0"
           id="path336"
           style="fill:#449ecc;fill-opacity:1;fill-rule:nonzero;stroke:none"
           d="m 0,0 0,-4.193 c 2.444,0.873 4.477,1.975 5.927,3.19 L 5.927,0 0,0 Z" />
      </g>
      <g
         style="fill:#8cbedc;fill-opacity:1"
         transform="matrix(2.2568705,0,0,-2.2568705,304.16747,902.72791)"
         id="g338">
        <path
           inkscape:connector-curvature="0"
           id="path340"
           style="fill:#8cbedc;fill-opacity:1;fill-rule:nonzero;stroke:none"
           d="m 0,0 -7.69,0 0,-5.065 C -5.349,-5.651 -2.747,-6.032 0,-6.152 L 0,0 Z" />
      </g>
      <g
         style="fill:#8cbedc;fill-opacity:1"
         transform="matrix(2.2568705,0,0,-2.2568705,279.63529,911.94949)"
         id="g342">
        <path
           inkscape:connector-curvature="0"
           id="path344"
           style="fill:#8cbedc;fill-opacity:1;fill-rule:nonzero;stroke:none"
           d="m 0,0 0,4.086 -5.583,0 0,-1.004 C -4.744,2.374 -3.708,1.699 -2.508,1.089 -1.736,0.696 -0.896,0.333 0,0" />
      </g>
      <g
         style="fill:#8cbedc;fill-opacity:1"
         transform="matrix(2.2568705,0,0,-2.2568705,304.16747,923.76195)"
         id="g346">
        <path
           inkscape:connector-curvature="0"
           id="path348"
           style="fill:#8cbedc;fill-opacity:1;fill-rule:nonzero;stroke:none"
           d="m 0,0 c -2.706,0.119 -5.297,0.45 -7.69,0.992 l 0,-6.682 C -5.346,-6.896 -2.748,-7.666 0,-7.918 L 0,0 Z" />
      </g>
      <g
         style="fill:#8cbedc;fill-opacity:1"
         transform="matrix(2.2568705,0,0,-2.2568705,279.63529,932.05369)"
         id="g350">
        <path
           inkscape:connector-curvature="0"
           id="path352"
           style="fill:#8cbedc;fill-opacity:1;fill-rule:nonzero;stroke:none"
           d="m 0,0 0,5.54 c -2.089,0.686 -3.965,1.55 -5.583,2.566 l 0,-1.651 C -4.175,3.939 -2.271,1.743 0,0" />
      </g>
      <g
         style="fill:#8cbedc;fill-opacity:1"
         transform="matrix(2.2568705,0,0,-2.2568705,286.7354,986.83922)"
         id="g354">
        <path
           inkscape:connector-curvature="0"
           id="path356"
           style="fill:#8cbedc;fill-opacity:1;fill-rule:nonzero;stroke:none"
           d="m 0,0 0,3.587 7.724,0 0,0.77 0,2.813 -7.725,0 0,3.588 7.725,0 0,6.079 C 1.157,17.35 -4.675,20.482 -8.73,25.193 l 0,-31.416 16.454,0 L 7.724,0 0,0 Z" />
      </g>
      <g
         style="fill:#449ecc;fill-opacity:1"
         transform="matrix(2.2568705,0,0,-2.2568705,312.82934,948.84029)"
         id="g358">
        <path
           inkscape:connector-curvature="0"
           id="path360"
           style="fill:#449ecc;fill-opacity:1;fill-rule:nonzero;stroke:none"
           d="m 0,0 0,-6.079 7.404,0 0,-3.588 -7.404,0 0,-2.814 0,-0.769 7.404,0 0,-3.587 -7.404,0 0,-6.223 16.47,0 0,31.431 C 12.413,3.655 6.578,0.517 0,0" />
      </g>
    </g>
    <g
       transform="matrix(1.8054964,0,0,1.8054964,-88.086626,-249.05489)"
       id="g5985">
      <g
         id="g5987"
         transform="matrix(1.25,0,0,-1.25,151.47179,762.9082)"
         style="fill:#449ecc;fill-opacity:1">
        <path
           d="m 0,0 c -5.352,0 -8.625,2.989 -8.625,8.853 l 0,11.384 4.384,0 0,-11.271 c 0,-3.244 1.622,-4.924 4.297,-4.924 2.676,0 4.299,1.622 4.299,4.782 l 0,11.413 4.383,0 0,-11.242 C 8.738,2.961 5.352,0 0,0"
           style="fill:#449ecc;fill-opacity:1;fill-rule:nonzero;stroke:none"
           id="path5989"
           inkscape:connector-curvature="0" />
      </g>
      <g
         id="g5991"
         transform="matrix(1.25,0,0,-1.25,183.31429,762.5157)"
         style="fill:#449ecc;fill-opacity:1">
        <path
           d="m 0,0 -9.65,12.666 0,-12.666 -4.325,0 0,19.924 4.041,0 9.336,-12.267 0,12.267 4.327,0 L 3.729,0 0,0 Z"
           style="fill:#449ecc;fill-opacity:1;fill-rule:nonzero;stroke:none"
           id="path5993"
           inkscape:connector-curvature="0" />
      </g>
      <g
         id="g5995"
         transform="matrix(1.25,0,0,-1.25,78.06929,792.2382)"
         style="fill:#449ecc;fill-opacity:1">
        <path
           d="M 0,0 -3.814,0 -8.311,13.036 -12.808,0 l -3.814,0 -6.803,20.063 4.697,0 4.127,-13.489 4.468,13.546 3.758,0 4.468,-13.546 4.127,13.489 4.583,0 L 0,0 Z"
           style="fill:#449ecc;fill-opacity:1;fill-rule:nonzero;stroke:none"
           id="path5997"
           inkscape:connector-curvature="0" />
      </g>
      <g
         id="g5999"
         transform="matrix(1.25,0,0,-1.25,106.39054,779.6082)"
         style="fill:#449ecc;fill-opacity:1">
        <path
           d="m 0,0 c 0,3.415 -2.504,6.26 -6.034,6.26 -3.53,0 -5.977,-2.788 -5.977,-6.203 l 0,-0.057 c 0,-3.415 2.505,-6.262 6.034,-6.262 3.529,0 5.977,2.79 5.977,6.205 L 0,0 Z m -6.034,-10.303 c -6.148,0 -10.56,4.582 -10.56,10.246 l 0,0.057 c 0,5.663 4.469,10.3 10.617,10.3 6.148,0 10.56,-4.58 10.56,-10.243 L 4.583,0 c 0,-5.664 -4.469,-10.303 -10.617,-10.303"
           style="fill:#449ecc;fill-opacity:1;fill-rule:nonzero;stroke:none"
           id="path6001"
           inkscape:connector-curvature="0" />
      </g>
      <g
         id="g6003"
         transform="matrix(1.25,0,0,-1.25,134.00054,792.05945)"
         style="fill:#449ecc;fill-opacity:1">
        <path
           d="m 0,0 0,13.007 -5.607,-8.51 -0.114,0 -5.55,8.425 0,-12.922 -4.298,0 0,19.921 4.725,0 5.237,-8.422 5.237,8.422 4.725,0 L 4.355,0 0,0 Z"
           style="fill:#449ecc;fill-opacity:1;fill-rule:nonzero;stroke:none"
           id="path6005"
           inkscape:connector-curvature="0" />
      </g>
      <g
         id="g6007"
         transform="matrix(1.25,0,0,-1.25,143.67804,792.05945)"
         style="fill:#449ecc;fill-opacity:1">
        <path
           d="m 0,0 0,19.921 15.03,0 0,-3.898 -10.675,0 0,-4.04 9.391,0 0,-3.9 -9.391,0 0,-4.184 10.818,0 L 15.173,0 0,0 Z"
           style="fill:#449ecc;fill-opacity:1;fill-rule:nonzero;stroke:none"
           id="path6009"
           inkscape:connector-curvature="0" />
      </g>
      <g
         id="g6011"
         transform="matrix(1.25,0,0,-1.25,183.24179,792.05945)"
         style="fill:#449ecc;fill-opacity:1">
        <path
           d="m 0,0 -9.65,12.666 0,-12.666 -4.326,0 0,19.921 4.042,0 9.336,-12.264 0,12.264 4.325,0 L 3.727,0 0,0 Z"
           style="fill:#449ecc;fill-opacity:1;fill-rule:nonzero;stroke:none"
           id="path6013"
           inkscape:connector-curvature="0" />
      </g>
      <g
         id="g6015"
         transform="matrix(1.25,0,0,-1.25,127.70304,760.33445)"
         style="fill:#449ecc;fill-opacity:1">
        <path
           d="m 0,0 c -1.333,0.607 -2.876,1.286 -4.435,0.709 -0.787,0.256 -1.817,0.256 -2.603,0 -1.373,-0.624 -3.244,-1.567 -4.694,-0.522 0.273,-0.328 0.568,-0.484 0.881,-0.711 0.936,-0.606 2.285,-0.545 3.251,-0.055 0.888,0.375 1.567,1.491 2.696,1.14 C -5.862,0.078 -6.742,-0.5 -7.537,-1.326 l 0.483,-0.412 c 0.699,0.927 1.644,1.699 2.658,2.151 0.982,-0.476 1.878,-1.294 2.619,-2.114 l 0.483,0.414 c -0.778,0.756 -1.683,1.365 -2.619,1.848 0.242,0.063 0.538,0.046 0.788,0.023 1.013,-0.444 1.792,-1.332 2.939,-1.465 1.216,-0.196 2.299,0.296 3.047,1.184 L 2.285,0 C 1.605,-0.305 0.695,-0.226 0,0 m -11.225,3.647 c 0.601,-0.701 0.624,-1.628 1.458,-2.204 0.32,-0.281 0.749,-0.336 1.107,-0.485 -0.398,-0.038 -0.765,0.124 -1.162,0.149 -1.342,0.163 -2.876,-0.008 -3.858,1.082 0.444,-0.779 1.231,-1.458 2.058,-1.722 1.558,-0.591 2.971,0.279 4.458,0.413 -1.73,0.078 -2.666,1.964 -4.061,2.767 M 2.301,3.742 C 1.405,3.156 0.632,2.159 -0.186,1.52 -0.639,1.176 -1.177,1.075 -1.707,0.92 -0.538,0.833 0.437,0.28 1.661,0.358 2.971,0.413 4.17,1.176 4.787,2.338 3.883,1.262 2.433,1.325 1.099,1.2 0.656,1.145 0.218,1.013 -0.226,1.013 -0.21,1.028 -0.195,1.06 -0.171,1.052 1.287,1.176 1.7,2.759 2.301,3.742 m -6.626,0.935 0.077,-0.133 -0.016,-0.99 c 0.29,0.109 0.686,0.102 0.953,0.149 -0.157,0.155 -0.39,0.14 -0.453,0.373 -0.11,0.156 0.046,0.319 0.037,0.453 -0.186,0.086 -0.466,-0.025 -0.598,0.148 M -9.073,4.957 -9.939,4.061 C -8.457,2.736 -6.688,2.019 -4.7,1.895 l -0.054,0.092 c 0.015,0.391 -0.031,0.804 0.039,1.177 L -4.731,3.141 C -6.392,3.187 -7.904,3.803 -9.073,4.957 M 0.134,5.035 C -0.038,4.801 -0.272,4.583 -0.522,4.436 -1.333,4.154 -1.41,3.25 -2.206,2.953 -2.518,2.829 -2.696,3.234 -2.977,3.296 -3.399,3.227 -3.835,3.11 -4.264,3.18 l 0,-1.309 0.055,0.038 C -2.198,1.995 -0.381,2.791 1.03,4.114 0.71,4.42 0.367,4.732 0.134,5.035 m -7.656,0.694 c 0,-0.133 0.18,-0.139 0.109,-0.304 C -7.678,5.261 -7.997,5.378 -8.255,5.183 -8.49,5.058 -8.683,5.331 -8.817,5.315 -7.678,4.334 -6.344,3.68 -4.81,3.609 L -4.715,3.554 C -4.778,3.928 -4.754,4.364 -4.731,4.755 -5.776,4.692 -6.719,5.128 -7.522,5.729 M -7.654,5.877 -7.562,5.76 -7.654,5.877 Z m -5.238,0.257 0.225,-0.576 c 0.218,-1.294 0.321,-2.721 1.498,-3.539 l -0.018,-0.017 c -0.38,0.165 -0.668,0.484 -1.013,0.694 -1.106,0.717 -2.634,1.037 -3.258,2.41 0.171,-1.005 0.859,-1.903 1.683,-2.526 0.991,-0.873 2.371,-0.804 3.58,-1.154 -0.445,0.342 -0.695,0.733 -0.897,1.215 -0.445,1.226 -0.835,2.503 -1.8,3.493 m 11.863,0.039 0,-0.015 C -1.613,5.745 -0.748,5.729 -0.731,5.371 -0.818,5.2 -1.13,5.027 -0.935,4.824 -0.873,4.755 -0.966,4.7 -0.99,4.637 l 0.804,0.678 C -0.288,5.245 -0.413,5.291 -0.467,5.386 -0.458,5.737 -0.879,5.892 -1.029,6.173 M 3.968,6.266 3.313,5.409 C 2.433,4.192 2.533,2.531 1.31,1.495 1.941,1.699 2.635,1.784 3.29,1.924 4.764,2.299 6.316,3.749 6.525,5.261 6.26,4.63 5.708,4.162 5.146,3.796 4.18,3.343 3.197,2.829 2.378,2.113 l -0.093,0 0.055,0.076 C 3.751,3.126 3.369,4.935 3.968,6.266 M -6.774,7.257 C -7.023,6.953 -7.32,6.664 -7.614,6.416 l 0.052,0 c 0.688,-0.594 1.551,-1.007 2.363,-1.139 -0.297,0.038 -0.413,0.327 -0.546,0.545 -0.077,0.181 0.195,0.219 0.149,0.405 0.1,0.165 0.257,0.258 0.451,0.281 -0.093,-0.015 -0.188,-0.03 -0.28,-0.053 -0.491,0.162 -0.99,0.382 -1.349,0.802 m 3.983,0.132 C -2.876,7.343 -2.947,7.343 -2.992,7.241 -3.094,7.108 -3.219,7.248 -3.311,7.297 -3.281,7.257 -3.211,7.163 -3.297,7.108 -3.399,7 -3.492,7.157 -3.593,7.186 -3.648,6.845 -3.773,7.28 -3.952,7.202 -4.029,7.397 -4.163,7.163 -4.287,7.186 -4.381,7.108 -4.388,6.883 -4.568,6.906 -4.607,6.797 -4.754,6.837 -4.771,6.758 -4.684,6.657 -4.568,6.704 -4.474,6.72 c 0.149,0.131 0.335,0.046 0.507,0.069 -0.015,-0.281 0.311,-0.069 0.413,-0.242 0.117,0.008 0.117,0.126 0.163,0.211 0.242,0.039 0.492,0.187 0.625,0.375 0.03,0.069 0.077,0.218 -0.025,0.256 m -0.443,0.188 c 0.093,0.125 0.296,0.101 0.335,0.241 C -3.072,7.849 -3.258,7.726 -3.234,7.577 M -5.651,8.418 -6.4,7.577 c 0.429,-0.329 0.928,-0.584 1.483,-0.671 -0.009,0.149 -0.009,0.296 0.068,0.413 0.078,0.047 0.195,-0.022 0.266,0.054 -0.008,0.071 -0.054,0.071 -0.094,0.134 -0.046,0.108 0,0.209 0.015,0.279 0.031,0.055 -0.061,0.179 0.04,0.22 C -4.864,7.888 -5.082,8.051 -5.293,8.122 -5.41,8.215 -5.62,8.239 -5.651,8.418 M -0.639,8.403 C -0.865,8.574 -0.818,8.248 -1.013,8.27 -1.083,8.286 -1.098,8.373 -1.106,8.444 -1.122,8.263 -1.261,8.131 -1.364,7.99 -1.723,8.091 -1.629,7.584 -1.987,7.694 -1.94,7.553 -1.784,7.716 -1.707,7.67 -1.644,7.702 -1.661,7.765 -1.629,7.802 -1.589,7.95 -1.41,8.006 -1.27,7.95 -1.192,7.826 -1.169,7.67 -1.177,7.522 -1.261,7.46 -1.261,7.358 -1.254,7.257 -1.364,7.078 -1.317,6.695 -1.644,6.735 -1.987,6.86 -2.362,6.953 -2.736,6.962 l 0,-0.079 c 0.251,-0.094 0.53,-0.094 0.734,-0.28 0.218,0.023 0.49,-0.033 0.654,0.092 0.024,0.156 0.087,0.298 0.187,0.413 0.14,-0.014 0.109,-0.202 0.171,-0.297 0.413,0.524 0.772,1.022 0.914,1.662 -0.204,0.014 -0.351,-0.1 -0.563,-0.07 m -13.002,0.07 c 0.093,-0.514 -0.07,-0.966 -0.149,-1.434 -0.266,-0.896 -0.132,-1.95 0.391,-2.681 -0.172,0.084 -0.281,0.287 -0.391,0.466 -0.646,1.24 -2.275,1.942 -2.417,3.43 -0.007,-0.538 -0.007,-1.107 0.156,-1.59 0.453,-1.668 2.293,-2.526 3.532,-3.368 -0.88,1.52 -0.413,3.587 -1.122,5.177 m 10.928,0.022 c -0.17,-0.241 0.164,-0.225 0.188,-0.428 0.04,0 0.084,-0.016 0.11,0.017 -0.026,0.085 -0.016,0.179 -0.093,0.241 -0.134,0 -0.134,0.17 -0.205,0.17 M 4.716,8.629 C 3.976,7.03 4.514,4.911 3.611,3.39 L 3.759,3.515 C 5.512,4.474 7.624,6.088 7.273,8.444 7.243,8.122 7.14,7.833 6.994,7.56 6.307,6.493 5.138,5.62 4.559,4.513 4.546,4.474 4.491,4.45 4.467,4.489 L 4.584,4.637 C 5.41,5.831 4.671,7.297 4.716,8.629 M -6.04,8.777 c -0.025,-0.11 -0.11,-0.194 -0.173,-0.282 0.11,0.048 0.173,0.212 0.297,0.204 L -6.04,8.777 Z M -7.351,9.096 -7.281,8.98 C -7.187,8.59 -6.953,8.263 -6.758,7.91 L -6.4,8.286 c -0.008,0.045 0.016,0.101 -0.015,0.132 -0.071,0.094 -0.024,0.267 -0.116,0.32 -0.031,-0.086 0.069,-0.133 0.022,-0.203 -0.116,0.048 -0.241,0.102 -0.303,0.242 0.023,0.18 -0.109,0.047 -0.205,0.132 -0.006,0.194 -0.248,0.071 -0.334,0.187 m -3.391,0.499 0.04,-0.055 c 0.038,-0.56 0.196,-1.107 0.24,-1.644 0.071,0.047 0.025,0.171 0.117,0.171 0.033,0.264 0.071,0.57 0.242,0.805 0.249,0.007 0.259,0.342 0.523,0.317 0.062,-0.045 0.148,-0.108 0.171,-0.186 -0.133,0.156 -0.139,0.405 -0.077,0.592 -0.39,-0.055 -0.859,-0.055 -1.256,0 m -1.645,-0.014 c 0.086,-1.989 0.82,-3.727 2.113,-5.201 0.289,0.304 0.608,0.647 0.92,0.897 -0.157,0.101 -0.257,0.281 -0.413,0.412 -0.194,0.04 -0.328,0.227 -0.375,0.391 0.009,-0.023 -0.023,-0.039 -0.039,-0.053 -0.179,-0.087 -0.234,0.131 -0.351,0.2 -0.108,0.056 -0.023,0.304 -0.21,0.211 -0.109,0.179 -0.311,0.165 -0.389,0.373 L -11.21,6.68 c -0.14,0.007 -0.24,0.18 -0.319,0.265 -0.288,-0.085 -0.172,0.312 -0.336,0.444 -0.062,0.25 0.016,0.484 0.148,0.678 0.086,0.078 0.25,0.017 0.281,-0.038 0.15,-0.055 0.054,0.116 0.134,0.148 0.21,0.179 0.311,-0.071 0.428,-0.203 -0.172,0.499 -0.281,1.084 -0.257,1.621 -0.398,-0.055 -0.85,-0.039 -1.256,-0.014 m 3.276,0.039 c 0.085,-0.283 0.178,-0.586 0.108,-0.898 0,0.141 0.304,0.281 0.062,0.405 0.093,0.143 0.023,0.438 0.202,0.454 C -8.878,9.55 -8.987,9.55 -9.111,9.62 M 0.602,9.636 C 0.647,9.479 0.554,9.331 0.562,9.167 0.398,8.894 0.772,8.824 0.67,8.568 0.602,8.512 0.531,8.52 0.445,8.551 0.25,7.786 -0.132,7.086 -0.678,6.478 l -0.053,0 c 0.138,-0.086 0.24,-0.281 0.396,-0.32 l 0,0.108 c 0.032,0.025 0.047,0.078 0.094,0.055 C 0.062,6.227 0.086,5.808 0.111,5.612 0.905,6.446 1.396,7.436 1.645,8.512 1.732,8.872 1.684,9.307 1.832,9.62 1.427,9.595 0.983,9.573 0.602,9.636 M 2.207,9.658 2.245,9.581 C 2.175,7.935 1.497,6.431 0.445,5.315 0.74,5.051 1.076,4.707 1.35,4.42 2.386,5.612 3.095,6.953 3.345,8.473 3.431,8.863 3.407,9.284 3.516,9.658 3.134,9.55 2.682,9.62 2.262,9.595 L 2.207,9.658 Z M -0.584,9.674 -0.375,9.432 C -0.381,9.159 -0.007,9.074 0.015,8.792 0.095,9.05 0.086,9.337 0.165,9.595 -0.076,9.62 -0.381,9.54 -0.584,9.674 m 0.133,0.39 0.093,0 -0.093,0 z m -7.671,0.155 c -0.289,-0.093 0,-0.366 -0.016,-0.545 C -8.169,9.525 -8.318,9.642 -8.405,9.581 -8.365,9.337 -8.566,9.291 -8.739,9.245 -8.795,9.081 -8.613,9.003 -8.699,8.847 -8.49,8.637 -8.326,8.379 -8.365,8.084 -8.215,7.873 -8.255,7.553 -8.215,7.28 -8.091,7.157 -8.021,6.968 -8.028,6.774 -8.021,6.673 -8.131,6.642 -8.193,6.603 -8.271,6.508 -8.138,6.555 -8.138,6.478 L -7.094,7.56 C -7.459,7.981 -7.747,8.543 -7.856,9.127 L -7.99,9.206 C -8.013,9.058 -8.005,8.847 -8.138,8.792 c -0.07,0.063 -0.211,0.094 -0.211,0.226 0.039,0.085 0.11,0.032 0.173,0.04 -0.009,0.069 0.007,0.14 0.015,0.203 0.023,0.085 -0.125,0.147 -0.015,0.225 0.093,0.009 0.132,-0.101 0.202,-0.149 l 0.187,0.095 c -0.054,0.179 0.046,0.46 -0.016,0.655 -0.023,0.156 -0.194,0.124 -0.319,0.132 m 3.329,1.005 0.022,-0.016 c 0.024,-0.117 0.109,-0.296 0,-0.374 C -4.91,10.647 -5.246,10.687 -5.293,10.439 -5.658,10.328 -5.519,9.877 -5.635,9.595 -5.869,9.54 -5.784,9.822 -5.893,9.916 L -5.947,9.845 C -6.305,10.118 -6.236,9.532 -6.453,9.486 -6.204,9.432 -5.994,9.573 -5.745,9.581 -5.73,9.55 -5.667,9.532 -5.69,9.486 l 0.039,0 c 0.055,0.054 0.062,0.125 0.055,0.204 0.023,0.078 0.117,0.125 0.186,0.078 C -5.432,9.69 -5.379,9.627 -5.316,9.595 L -5.448,9.408 C -5.519,9.331 -5.432,9.119 -5.612,9.127 -5.651,9.119 -5.683,9.152 -5.667,9.189 l -0.039,0 0.094,-0.171 c 0.11,0.009 0.085,0.204 0.226,0.227 0.125,0.03 0.14,0.179 0.125,0.295 0.163,0.143 0.366,0.055 0.546,0.08 C -4.67,9.573 -4.56,9.556 -4.583,9.47 -4.513,9.331 -4.631,9.174 -4.715,9.058 -4.677,8.98 -4.771,8.917 -4.771,8.833 -4.917,8.676 -5.082,8.746 -5.277,8.699 c 0.25,-0.17 0.515,-0.281 0.842,-0.255 0.312,-0.026 0.164,0.372 0.389,0.497 0.133,0.016 0.251,-0.016 0.398,0.024 0.062,0.116 0.07,0.257 0.094,0.388 -0.134,0.064 -0.086,0.197 -0.094,0.305 -0.079,0.095 -0.07,0.265 -0.226,0.281 -0.031,0.086 0.062,0.125 0.054,0.202 0.234,0.086 -0.124,0.226 0.025,0.359 -0.266,0.046 -0.328,0.467 -0.656,0.334 -0.077,0.11 -0.28,0.158 -0.28,0.321 0.023,0.116 0.289,0.069 0.257,0.053 -0.017,0.025 -0.046,0.041 -0.039,0.072 -0.1,0.007 -0.218,0 -0.28,-0.056 m -11.108,0.492 c -0.406,-0.936 -0.384,-2.176 -0.079,-3.148 0.264,-1.008 1.224,-1.708 1.722,-2.581 -0.085,0.365 -0.069,0.824 -0.015,1.199 0.327,1.301 0.841,2.557 0.764,4 -0.195,-1.037 -1.123,-1.769 -1.232,-2.838 -0.069,-0.438 0.039,-0.865 0.093,-1.254 -0.099,0.195 -0.195,0.42 -0.209,0.671 -0.156,1.402 -1.286,2.431 -1.044,3.951 M 6.939,11.88 C 7.156,10.617 6.393,9.665 6.08,8.568 5.909,8.145 5.979,7.608 5.723,7.241 5.708,7.452 5.824,7.654 5.84,7.882 6.034,9.291 4.81,10.126 4.53,11.318 4.514,10.999 4.537,10.695 4.584,10.406 4.655,8.917 5.629,7.709 5.348,6.158 5.629,6.526 5.84,6.899 6.174,7.257 7.297,8.426 7.586,10.383 6.939,11.88 m -11.71,0.895 c -0.654,-0.093 -1.269,-0.335 -1.738,-0.841 0.154,-0.031 0.312,-0.093 0.429,-0.202 0.04,-0.078 -0.07,-0.087 -0.078,-0.133 0.102,-0.148 0.109,0.031 0.211,0.055 0.094,-0.095 0.178,-0.164 0.312,-0.095 0.07,-0.116 0.179,-0.006 0.264,-0.016 0.032,0.095 0.164,0.173 0.11,0.282 0.046,0.086 0.07,0.226 0.188,0.226 -0.072,-0.366 0.272,0 0.373,-0.171 -0.101,0.265 -0.023,0.63 -0.071,0.895 m 0.507,0.024 0.031,-0.842 0.32,-0.116 c 0.093,0.165 0.265,0.203 0.374,0.342 0.102,0.048 0.102,-0.078 0.148,-0.117 0.063,-0.381 -0.359,-0.553 -0.591,-0.708 l 0.093,0 c 0.241,0.249 0.381,-0.312 0.631,-0.056 0.047,0.321 0.499,0.281 0.6,0.601 -0.078,-0.078 -0.117,0.008 -0.186,0.031 0.022,0.11 0.17,0.179 0.241,0.249 -0.506,0.314 -1.06,0.523 -1.661,0.616 m -3.618,0.149 C -8.146,12.62 -8.405,12.262 -8.59,11.88 -8.894,11.318 -8.979,10.673 -9.096,10.032 l 0.506,0.016 c -0.085,0.101 -0.07,0.241 -0.07,0.374 0.117,0.251 0.164,0.694 0.538,0.669 0.179,0.04 -0.009,0.18 0.132,0.25 0.266,0.04 0.336,0.289 0.561,0.405 0.211,0.026 0.257,0.32 0.468,0.344 -0.359,0.249 -0.601,0.562 -0.921,0.858 m 6.776,0.038 c -0.36,-0.421 -0.827,-0.864 -1.178,-1.27 0.025,-0.054 0.086,-0.117 0.095,-0.093 0.092,0.117 0.022,0.412 0.28,0.35 0.257,-0.086 0.483,-0.062 0.764,-0.093 0.155,-0.086 0.179,-0.273 0.319,-0.352 0.064,-0.069 -0.024,-0.132 -0.053,-0.187 0.029,-0.031 0.061,-0.061 0.077,-0.092 0.078,0.069 0.188,0.163 0.335,0.124 0.148,-0.009 0.187,-0.218 0.32,-0.242 0.062,-0.078 -0.039,-0.156 -0.094,-0.187 0.031,-0.148 -0.14,-0.195 -0.078,-0.336 0.078,-0.014 0.155,0.024 0.187,0.079 0.297,0.218 0.063,0.499 0.016,0.764 -0.117,0.242 -0.368,0.289 -0.562,0.468 0.009,0.078 0.054,0.163 0.117,0.203 -0.006,0.342 -0.358,0.576 -0.545,0.864 m -7.967,1.161 0,-0.077 c -0.991,-1.129 -1.543,-2.494 -1.645,-4.022 0.406,-0.009 0.848,0.016 1.232,-0.016 l -0.039,0.055 c 0.078,1.207 0.507,2.308 1.332,3.179 -0.327,0.266 -0.63,0.571 -0.88,0.881 m 4.786,0.296 c 0.063,-0.364 0.046,-0.793 0.023,-1.177 0.725,-0.053 1.498,-0.349 2.02,-0.826 0.272,0.282 0.576,0.657 0.88,0.826 -0.857,0.68 -1.817,1.101 -2.923,1.177 m -0.444,0.017 -0.04,-0.031 c -1.076,-0.062 -1.971,-0.539 -2.806,-1.186 0.32,-0.211 0.576,-0.537 0.881,-0.818 0.523,0.499 1.217,0.796 1.942,0.818 -0.024,0.359 -0.039,0.836 0.023,1.217 m -9.978,0.281 c -0.451,-0.539 -0.756,-1.184 -0.914,-1.87 -0.303,-1.436 0.562,-2.543 0.749,-3.853 0.251,1.644 1.982,2.682 2.074,4.398 -0.506,-0.929 -1.738,-1.467 -1.963,-2.565 0,-0.178 -0.055,-0.351 -0.094,-0.523 l -0.038,0.039 0.061,0.709 c 0.211,1.271 -0.53,2.581 0.125,3.665 M 5.629,14.912 C 6.205,14.07 5.879,12.886 5.84,11.903 5.862,11.426 5.941,10.953 5.909,10.476 5.84,10.662 5.824,10.867 5.777,11.061 5.544,12.129 4.288,12.652 3.78,13.549 3.859,13.243 3.914,12.941 4.024,12.652 4.46,11.388 5.769,10.538 5.949,9.167 c 0.117,1.309 1.036,2.354 0.693,3.781 -0.178,0.716 -0.475,1.419 -1.013,1.964 m -15.81,0.295 -0.038,0.119 c -1.335,-1.451 -2.082,-3.282 -2.184,-5.278 l 1.272,-0.016 c -0.047,0.407 0.062,0.797 0.11,1.192 0.27,1.178 0.778,2.292 1.682,3.166 l -0.842,0.817 z M 1.232,15.341 0.413,14.46 0.281,14.443 c 0.109,0 0.078,-0.124 0.148,-0.169 0.343,-0.242 0.499,-0.587 0.788,-0.843 0.109,-0.265 0.388,-0.437 0.388,-0.764 0.407,-0.787 0.594,-1.714 0.64,-2.619 0.406,0.047 0.865,0.063 1.256,0.054 l -0.04,0.039 c -0.078,2.026 -0.904,3.758 -2.229,5.2 m -9.986,-0.937 c 0.312,-0.217 0.616,-0.559 0.872,-0.841 0.828,0.804 1.935,1.295 3.128,1.31 -0.024,0.39 -0.024,0.811 0,1.202 -1.514,-0.118 -2.87,-0.664 -4,-1.671 m 8.023,1.708 c -0.064,-0.015 -0.041,-0.116 -0.017,-0.155 0.203,-0.016 0.203,-0.358 0.445,-0.218 l -0.055,0.24 c -0.061,0.158 -0.273,0.078 -0.373,0.133 m -3.572,0 c 0.062,-0.389 0.039,-0.857 0.016,-1.239 0.99,-0.015 1.925,-0.32 2.698,-0.896 -0.072,0.038 -0.164,0.194 -0.15,0.297 l 0.032,0 c 0.016,0.139 -0.195,0.201 -0.125,0.342 0.188,-0.015 0.327,-0.273 0.428,-0.414 0.539,0.008 0.227,-0.63 0.632,-0.825 0.094,-0.048 -0.03,-0.242 0.118,-0.227 0.126,-0.102 0.279,-0.209 0.257,-0.375 C -0.351,12.497 -0.125,12.863 0,12.682 0.111,12.596 -0.076,12.542 -0.054,12.44 0.015,12.41 0.079,12.51 0.134,12.425 0.157,12.331 0.086,12.293 0.038,12.238 -0.007,12.075 0.187,12.167 0.242,12.09 0.329,11.903 0.398,11.623 0.258,11.412 0.452,11.202 0.227,10.983 0.187,10.78 0.048,10.647 0.024,10.335 -0.241,10.406 -0.303,10.298 -0.203,10.173 -0.266,10.087 l 0.469,-0.023 c -0.264,0.375 0.078,0.732 0.187,1.067 0.055,0.024 0.126,0.14 0.172,0.024 -0.024,-0.156 -0.038,-0.326 -0.055,-0.454 0.117,-0.177 0.07,-0.427 0.11,-0.637 l 1.2,0.023 c -0.085,0.794 -0.25,1.558 -0.585,2.244 -0.086,-0.03 -0.187,-0.093 -0.28,-0.038 -0.133,0.18 -0.242,0.397 -0.428,0.545 -0.157,0 -0.266,0.125 -0.39,0.203 -0.273,-0.009 -0.172,0.39 -0.437,0.336 -0.142,0.069 -0.242,0.139 -0.281,0.303 -0.009,0.187 -0.024,0.421 -0.204,0.562 -0.1,0.054 -0.193,-0.015 -0.264,-0.078 -0.148,-0.094 -0.209,0.07 -0.202,0.188 -0.165,0.123 0.007,0.264 -0.079,0.411 -0.233,0.188 -0.124,0.538 -0.444,0.695 -0.515,0.248 -1.06,0.405 -1.63,0.521 -0.294,0.048 -0.615,0.056 -0.896,0.133 m -9.955,-0.919 c -0.63,-0.928 -0.118,-2.214 -0.297,-3.313 0.228,0.451 0.664,0.88 1.046,1.2 0.881,0.57 1.67,1.473 1.699,2.486 -0.467,-1.199 -2.012,-1.356 -2.393,-2.634 l -0.039,0 c 0.569,1.06 0.25,2.557 1.333,3.344 -0.569,-0.164 -1.051,-0.585 -1.349,-1.083 m 18.094,1.231 c 0.827,-0.545 0.772,-1.551 1.068,-2.37 0.078,-0.343 0.288,-0.654 0.31,-0.997 -0.443,1.286 -1.94,1.427 -2.486,2.642 L 2.901,14.99 c 0.42,-1.38 2.065,-1.715 2.688,-2.964 -0.193,0.906 0.148,1.849 -0.124,2.737 -0.226,0.765 -0.857,1.435 -1.629,1.661 m -7.164,0.717 -0.561,-0.248 c -0.063,-0.033 -0.258,0.069 -0.226,-0.095 0.108,-0.07 0.218,-0.147 0.351,-0.163 0.35,0.156 0.772,-0.101 1.068,0.225 -0.086,0.234 -0.398,0.242 -0.632,0.281 m -7.321,0.258 c -0.74,-0.297 -1.543,-0.539 -2.096,-1.231 -0.428,-0.562 -0.561,-1.233 -0.779,-1.872 l 0.654,0.562 c 0.999,0.693 1.255,1.824 2.221,2.541 m 12.216,0.117 0.601,-0.602 c 0.607,-0.935 1.458,-1.86 2.299,-2.454 -0.179,0.375 -0.218,0.811 -0.406,1.186 -0.373,1.044 -1.535,1.55 -2.494,1.87 m -11.506,-1.91 0.921,-0.881 c 1.153,1.121 2.634,1.762 4.264,1.818 -0.062,0.388 -0.039,0.834 -0.017,1.23 -1.979,-0.11 -3.701,-0.859 -5.168,-2.167 m 5.652,2.206 c 0.031,-0.311 0.031,-0.75 0,-1.108 0.008,0.056 0.063,0.056 0.094,0.078 0.109,-0.039 0.109,-0.17 0.078,-0.264 l -0.024,0 c 0.561,0.039 1.1,-0.101 1.614,-0.258 0.538,-0.07 1.005,-0.717 1.535,-0.374 0.149,-0.163 0.406,-0.007 0.483,-0.264 0.204,-0.04 0.312,-0.244 0.453,-0.374 -0.015,-0.188 0.156,-0.274 0.219,-0.413 l 0,0.023 c 0.179,0.319 0.459,0.6 0.771,0.764 -1.115,1.06 -2.479,1.746 -3.969,2.019 -0.404,0.085 -0.856,0.063 -1.254,0.171 M 2.876,13.79 C 4.46,11.179 4.132,7.202 2.222,4.848 0.111,2.057 -3.375,0.849 -6.812,1.801 c -3.127,0.817 -5.675,3.803 -5.964,7.032 -0.39,3.42 1.2,6.54 4.093,8.245 2.23,1.372 5.666,1.529 7.99,0.227 1.411,-0.686 2.83,-2.089 3.569,-3.515"
           style="fill:#449ecc;fill-opacity:1;fill-rule:nonzero;stroke:none"
           id="path6017"
           inkscape:connector-curvature="0" />
      </g>
      <g
         id="g6019"
         transform="matrix(1.25,0,0,-1.25,91.66054,808.07945)"
         style="fill:#000000;fill-opacity:1">
        <path
           d="m 0,0 c -1.45,0 -1.758,0.794 -1.758,1.642 l 0,3.044 0.746,0 0,-2.99 c 0,-0.615 0.205,-1.08 1.06,-1.08 0.752,0 1.094,0.315 1.094,1.176 l 0,2.894 0.732,0 0,-2.839 C 1.874,0.616 1.211,0 0,0"
           style="fill:#000000;fill-opacity:1;fill-rule:nonzero;stroke:none"
           id="path6021"
           inkscape:connector-curvature="0" />
      </g>
      <g
         id="g6023"
         transform="matrix(1.25,0,0,-1.25,97.99804,807.9932)"
         style="fill:#000000;fill-opacity:1">
        <path
           d="m 0,0 0,2.189 c 0,0.424 -0.116,0.67 -0.506,0.67 -0.513,0 -0.89,-0.54 -0.89,-1.217 l 0,-1.642 -0.731,0 0,3.4 0.697,0 c 0,-0.178 -0.013,-0.472 -0.048,-0.664 l 0.007,-0.007 c 0.199,0.438 0.609,0.739 1.184,0.739 0.773,0 1.012,-0.486 1.012,-1.087 L 0.725,0 0,0 Z"
           style="fill:#000000;fill-opacity:1;fill-rule:nonzero;stroke:none"
           id="path6025"
           inkscape:connector-curvature="0" />
      </g>
      <path
         d="m 100.23929,803.74445 0.915,0 0,4.25 -0.915,0 0,-4.25 z m 0.4625,-0.63375 c -0.325,0 -0.59,-0.25625 -0.59,-0.5725 0,-0.31625 0.265,-0.57375 0.59,-0.57375 0.31625,0 0.58125,0.24875 0.58125,0.57375 0,0.31625 -0.265,0.5725 -0.58125,0.5725"
         style="fill:#000000;fill-opacity:1;fill-rule:nonzero;stroke:none"
         id="path6027"
         inkscape:connector-curvature="0" />
      <g
         id="g6029"
         transform="matrix(1.25,0,0,-1.25,103.84804,808.06945)"
         style="fill:#000000;fill-opacity:1">
        <path
           d="m 0,0 c -0.725,0 -0.944,0.281 -0.944,1.04 l 0,1.853 -0.65,0 0,0.568 0.65,0 0,1.081 0.725,0.198 0,-1.279 0.896,0 0,-0.568 -0.889,0 0,-1.628 c 0,-0.506 0.102,-0.642 0.445,-0.642 0.15,0 0.314,0.02 0.444,0.054 l 0,-0.602 C 0.479,0.034 0.226,0 0,0"
           style="fill:#000000;fill-opacity:1;fill-rule:nonzero;stroke:none"
           id="path6031"
           inkscape:connector-curvature="0" />
      </g>
      <g
         id="g6033"
         transform="matrix(1.25,0,0,-1.25,107.24304,804.3332)"
         style="fill:#000000;fill-opacity:1">
        <path
           d="m 0,0 c -0.41,0 -0.698,-0.301 -0.759,-0.759 l 1.443,0 C 0.698,-0.294 0.431,0 0,0 m 1.395,-1.272 -2.168,0 c -0.021,-0.787 0.328,-1.143 1.006,-1.143 0.349,0 0.711,0.083 0.991,0.22 L 1.293,-2.777 C 0.951,-2.921 0.534,-2.996 0.116,-2.996 c -1.06,0 -1.641,0.547 -1.641,1.744 0,1.026 0.56,1.792 1.552,1.792 0.972,0 1.389,-0.663 1.389,-1.47 0,-0.096 -0.007,-0.212 -0.021,-0.342"
           style="fill:#000000;fill-opacity:1;fill-rule:nonzero;stroke:none"
           id="path6035"
           inkscape:connector-curvature="0" />
      </g>
      <g
         id="g6037"
         transform="matrix(1.25,0,0,-1.25,112.57179,804.47945)"
         style="fill:#000000;fill-opacity:1">
        <path
           d="m 0,0 c -0.185,0.041 -0.363,0.061 -0.54,0.061 -0.582,0 -0.978,-0.355 -0.978,-1.272 0,-0.684 0.211,-1.067 0.677,-1.067 0.54,0 0.841,0.643 0.841,1.224 L 0,0 Z m 0.034,-2.812 c 0,0.179 0.014,0.445 0.048,0.637 l -0.014,0 C -0.116,-2.592 -0.513,-2.88 -1.04,-2.88 c -0.834,0 -1.252,0.616 -1.252,1.601 0,1.17 0.678,1.922 1.779,1.922 0.164,0 0.328,-0.014 0.513,-0.028 l 0,1.567 0.725,0 0,-4.994 -0.691,0 z"
           style="fill:#000000;fill-opacity:1;fill-rule:nonzero;stroke:none"
           id="path6039"
           inkscape:connector-curvature="0" />
      </g>
      <g
         id="g6041"
         transform="matrix(1.25,0,0,-1.25,120.14929,807.9932)"
         style="fill:#000000;fill-opacity:1">
        <path
           d="M 0,0 -1.58,2.627 C -1.785,2.962 -1.949,3.29 -2.093,3.598 -2.066,3.147 -2.052,2.21 -2.052,1.553 l 0,-1.553 -0.725,0 0,4.618 0.978,0 L -0.274,2.1 C -0.068,1.758 0.116,1.389 0.287,1.054 0.26,1.58 0.239,2.572 0.239,3.249 l 0,1.369 0.726,0 L 0.965,0 0,0 Z"
           style="fill:#000000;fill-opacity:1;fill-rule:nonzero;stroke:none"
           id="path6043"
           inkscape:connector-curvature="0" />
      </g>
      <g
         id="g6045"
         transform="matrix(1.25,0,0,-1.25,124.90429,806.06945)"
         style="fill:#000000;fill-opacity:1">
        <path
           d="m 0,0 c -1.067,0 -1.3,-0.322 -1.3,-0.616 0,-0.253 0.178,-0.417 0.465,-0.417 0.5,0 0.835,0.479 0.835,0.964 L 0,0 Z m 0.048,-1.539 c 0,0.219 0.007,0.444 0.034,0.629 l -0.007,0.007 c -0.164,-0.404 -0.588,-0.705 -1.128,-0.705 -0.582,0 -0.951,0.329 -0.951,0.869 0,0.78 0.78,1.231 2.004,1.231 l 0,0.219 c 0,0.424 -0.178,0.643 -0.711,0.643 -0.315,0 -0.725,-0.095 -1.013,-0.273 l -0.068,0.622 c 0.335,0.13 0.759,0.226 1.197,0.226 1.04,0 1.327,-0.452 1.327,-1.149 l 0,-1.389 c 0,-0.294 0.007,-0.643 0.021,-0.93 l -0.705,0 z"
           style="fill:#000000;fill-opacity:1;fill-rule:nonzero;stroke:none"
           id="path6047"
           inkscape:connector-curvature="0" />
      </g>
      <g
         id="g6049"
         transform="matrix(1.25,0,0,-1.25,128.43679,808.06945)"
         style="fill:#000000;fill-opacity:1">
        <path
           d="m 0,0 c -0.725,0 -0.944,0.281 -0.944,1.04 l 0,1.853 -0.65,0 0,0.568 0.65,0 0,1.081 0.725,0.198 0,-1.279 0.896,0 0,-0.568 -0.889,0 0,-1.628 c 0,-0.506 0.102,-0.642 0.445,-0.642 0.15,0 0.314,0.02 0.444,0.054 l 0,-0.602 C 0.479,0.034 0.226,0 0,0"
           style="fill:#000000;fill-opacity:1;fill-rule:nonzero;stroke:none"
           id="path6051"
           inkscape:connector-curvature="0" />
      </g>
      <path
         d="m 130.26804,803.74445 0.915,0 0,4.25 -0.915,0 0,-4.25 z m 0.46125,-0.63375 c -0.325,0 -0.59,-0.25625 -0.59,-0.5725 0,-0.31625 0.265,-0.57375 0.59,-0.57375 0.31625,0 0.58125,0.24875 0.58125,0.57375 0,0.31625 -0.265,0.5725 -0.58125,0.5725"
         style="fill:#000000;fill-opacity:1;fill-rule:nonzero;stroke:none"
         id="path6053"
         inkscape:connector-curvature="0" />
      <g
         id="g6055"
         transform="matrix(1.25,0,0,-1.25,134.20054,804.4282)"
         style="fill:#000000;fill-opacity:1">
        <path
           d="m 0,0 c -0.445,0 -0.876,-0.342 -0.876,-1.122 0,-0.766 0.301,-1.169 0.869,-1.169 0.472,0 0.869,0.369 0.869,1.155 C 0.862,-0.41 0.581,0 0,0 m -0.075,-2.921 c -0.944,0 -1.56,0.527 -1.56,1.724 0,1.026 0.664,1.812 1.697,1.812 0.909,0 1.552,-0.506 1.552,-1.703 0,-1.046 -0.684,-1.833 -1.689,-1.833"
           style="fill:#000000;fill-opacity:1;fill-rule:nonzero;stroke:none"
           id="path6057"
           inkscape:connector-curvature="0" />
      </g>
      <g
         id="g6059"
         transform="matrix(1.25,0,0,-1.25,139.87179,807.9932)"
         style="fill:#000000;fill-opacity:1">
        <path
           d="m 0,0 0,2.189 c 0,0.424 -0.116,0.67 -0.506,0.67 -0.513,0 -0.889,-0.54 -0.889,-1.217 l 0,-1.642 -0.732,0 0,3.4 0.697,0 c 0,-0.178 -0.013,-0.472 -0.047,-0.664 l 0.006,-0.007 c 0.199,0.438 0.609,0.739 1.184,0.739 0.773,0 1.012,-0.486 1.012,-1.087 L 0.725,0 0,0 Z"
           style="fill:#000000;fill-opacity:1;fill-rule:nonzero;stroke:none"
           id="path6061"
           inkscape:connector-curvature="0" />
      </g>
      <g
         id="g6063"
         transform="matrix(1.25,0,0,-1.25,142.81429,808.07945)"
         style="fill:#000000;fill-opacity:1">
        <path
           d="m 0,0 c -0.253,0 -0.506,0.027 -0.718,0.068 l 0.02,0.623 c 0.213,-0.061 0.479,-0.109 0.739,-0.109 0.397,0 0.671,0.171 0.671,0.451 0,0.684 -1.492,0.273 -1.492,1.45 0,0.589 0.479,1.053 1.403,1.053 0.198,0 0.43,-0.027 0.636,-0.061 L 1.238,2.88 C 1.033,2.941 0.794,2.976 0.575,2.976 0.171,2.976 -0.027,2.811 -0.027,2.552 -0.027,1.895 1.478,2.23 1.478,1.102 1.478,0.465 0.91,0 0,0"
           style="fill:#000000;fill-opacity:1;fill-rule:nonzero;stroke:none"
           id="path6065"
           inkscape:connector-curvature="0" />
      </g>
      <g
         id="g6067"
         transform="matrix(1.25,0,0,-1.25,147.57804,807.9932)"
         style="fill:#000000;fill-opacity:1">
        <path
           d="m 0,0 0,4.618 2.435,0 0,-0.623 -1.69,0 0,-1.313 1.608,0 0,-0.609 -1.608,0 0,-1.437 1.69,0 L 2.435,0 0,0 Z"
           style="fill:#000000;fill-opacity:1;fill-rule:nonzero;stroke:none"
           id="path6069"
           inkscape:connector-curvature="0" />
      </g>
      <g
         id="g6071"
         transform="matrix(1.25,0,0,-1.25,154.49679,807.9932)"
         style="fill:#000000;fill-opacity:1">
        <path
           d="m 0,0 0,2.189 c 0,0.424 -0.116,0.67 -0.506,0.67 -0.513,0 -0.889,-0.54 -0.889,-1.217 l 0,-1.642 -0.732,0 0,3.4 0.697,0 c 0,-0.178 -0.013,-0.472 -0.047,-0.664 L -1.47,2.729 c 0.198,0.438 0.608,0.739 1.183,0.739 0.773,0 1.012,-0.486 1.012,-1.087 L 0.725,0 0,0 Z"
           style="fill:#000000;fill-opacity:1;fill-rule:nonzero;stroke:none"
           id="path6073"
           inkscape:connector-curvature="0" />
      </g>
      <g
         id="g6075"
         transform="matrix(1.25,0,0,-1.25,158.02804,808.06945)"
         style="fill:#000000;fill-opacity:1">
        <path
           d="m 0,0 c -0.725,0 -0.944,0.281 -0.944,1.04 l 0,1.853 -0.65,0 0,0.568 0.65,0 0,1.081 0.725,0.198 0,-1.279 0.896,0 0,-0.568 -0.889,0 0,-1.628 c 0,-0.506 0.102,-0.642 0.445,-0.642 0.15,0 0.314,0.02 0.444,0.054 l 0,-0.602 C 0.479,0.034 0.226,0 0,0"
           style="fill:#000000;fill-opacity:1;fill-rule:nonzero;stroke:none"
           id="path6077"
           inkscape:connector-curvature="0" />
      </g>
      <path
         d="m 159.85929,803.74445 0.915,0 0,4.25 -0.915,0 0,-4.25 z m 0.46125,-0.63375 c -0.325,0 -0.59,-0.25625 -0.59,-0.5725 0,-0.31625 0.265,-0.57375 0.59,-0.57375 0.31625,0 0.58125,0.24875 0.58125,0.57375 0,0.31625 -0.265,0.5725 -0.58125,0.5725"
         style="fill:#000000;fill-opacity:1;fill-rule:nonzero;stroke:none"
         id="path6079"
         inkscape:connector-curvature="0" />
      <g
         id="g6081"
         transform="matrix(1.25,0,0,-1.25,163.46804,808.06945)"
         style="fill:#000000;fill-opacity:1">
        <path
           d="m 0,0 c -0.725,0 -0.944,0.281 -0.944,1.04 l 0,1.853 -0.65,0 0,0.568 0.65,0 0,1.081 0.725,0.198 0,-1.279 0.896,0 0,-0.568 -0.889,0 0,-1.628 c 0,-0.506 0.103,-0.642 0.445,-0.642 0.15,0 0.314,0.02 0.444,0.054 l 0,-0.602 C 0.479,0.034 0.226,0 0,0"
           style="fill:#000000;fill-opacity:1;fill-rule:nonzero;stroke:none"
           id="path6083"
           inkscape:connector-curvature="0" />
      </g>
      <g
         id="g6085"
         transform="matrix(1.25,0,0,-1.25,167.00804,808.4032)"
         style="fill:#000000;fill-opacity:1">
        <path
           d="m 0,0 c -0.397,-1.06 -0.732,-1.389 -1.498,-1.389 -0.137,0 -0.322,0.021 -0.458,0.048 l 0.054,0.643 c 0.151,-0.055 0.288,-0.075 0.445,-0.075 0.342,0 0.534,0.157 0.746,0.739 l 0.136,0.362 -1.272,3.4 0.821,0 0.554,-1.553 c 0.109,-0.301 0.191,-0.602 0.267,-0.889 l 0.007,0 c 0.068,0.274 0.212,0.711 0.335,1.06 l 0.486,1.382 0.786,0 L 0,0 Z"
           style="fill:#000000;fill-opacity:1;fill-rule:nonzero;stroke:none"
           id="path6087"
           inkscape:connector-curvature="0" />
      </g>
      <g
         id="g6089"
         transform="matrix(1.25,0,0,-1.25,173.84929,802.5207)"
         style="fill:#000000;fill-opacity:1">
        <path
           d="m 0,0 c -0.15,0.048 -0.315,0.069 -0.465,0.069 -0.438,0 -0.636,-0.24 -0.636,-0.773 l 0,-0.274 0.882,0 0,-0.568 -0.882,0 0,-2.832 -0.725,0 0,2.832 -0.65,0 0,0.568 0.65,0 0,0.26 c 0,0.93 0.444,1.382 1.327,1.382 0.191,0 0.376,-0.021 0.554,-0.062 L 0,0 Z"
           style="fill:#000000;fill-opacity:1;fill-rule:nonzero;stroke:none"
           id="path6091"
           inkscape:connector-curvature="0" />
      </g>
      <g
         id="g6093"
         transform="matrix(1.25,0,0,-1.25,175.90179,804.4282)"
         style="fill:#000000;fill-opacity:1">
        <path
           d="m 0,0 c -0.445,0 -0.876,-0.342 -0.876,-1.122 0,-0.766 0.301,-1.169 0.869,-1.169 0.472,0 0.869,0.369 0.869,1.155 C 0.862,-0.41 0.581,0 0,0 m -0.075,-2.921 c -0.944,0 -1.56,0.527 -1.56,1.724 0,1.026 0.664,1.812 1.696,1.812 0.91,0 1.553,-0.506 1.553,-1.703 0,-1.046 -0.684,-1.833 -1.689,-1.833"
           style="fill:#000000;fill-opacity:1;fill-rule:nonzero;stroke:none"
           id="path6095"
           inkscape:connector-curvature="0" />
      </g>
      <g
         id="g6097"
         transform="matrix(1.25,0,0,-1.25,181.08429,804.5557)"
         style="fill:#000000;fill-opacity:1">
        <path
           d="m 0,0 c -0.677,0.123 -1.005,-0.349 -1.005,-1.368 l 0,-1.382 -0.732,0 0,3.4 0.697,0 c 0,-0.192 -0.02,-0.493 -0.068,-0.753 l 0.014,0 c 0.15,0.459 0.492,0.883 1.128,0.821 L 0,0 Z"
           style="fill:#000000;fill-opacity:1;fill-rule:nonzero;stroke:none"
           id="path6099"
           inkscape:connector-curvature="0" />
      </g>
      <g
         id="g6101"
         transform="matrix(1.25,0,0,-1.25,188.12304,803.2557)"
         style="fill:#000000;fill-opacity:1">
        <path
           d="m 0,0 c -0.383,0.15 -0.807,0.24 -1.231,0.24 -0.931,0 -1.676,-0.603 -1.676,-1.745 0,-1.067 0.608,-1.689 1.6,-1.689 0.267,0 0.5,0.04 0.712,0.109 l 0,1.676 0.745,0 0,-2.169 c -0.458,-0.177 -1.019,-0.28 -1.545,-0.28 -1.43,0 -2.313,0.855 -2.313,2.278 0,1.429 0.958,2.469 2.538,2.469 0.445,0 0.883,-0.068 1.286,-0.198 L 0,0 Z"
           style="fill:#000000;fill-opacity:1;fill-rule:nonzero;stroke:none"
           id="path6103"
           inkscape:connector-curvature="0" />
      </g>
      <g
         id="g6105"
         transform="matrix(1.25,0,0,-1.25,191.18554,804.3332)"
         style="fill:#000000;fill-opacity:1">
        <path
           d="m 0,0 c -0.411,0 -0.698,-0.301 -0.76,-0.759 l 1.444,0 C 0.697,-0.294 0.431,0 0,0 m 1.395,-1.272 -2.168,0 c -0.021,-0.787 0.328,-1.143 1.005,-1.143 0.349,0 0.711,0.083 0.992,0.22 L 1.293,-2.777 C 0.95,-2.921 0.533,-2.996 0.117,-2.996 c -1.061,0 -1.643,0.547 -1.643,1.744 0,1.026 0.561,1.792 1.554,1.792 0.971,0 1.387,-0.663 1.387,-1.47 0,-0.096 -0.006,-0.212 -0.02,-0.342"
           style="fill:#000000;fill-opacity:1;fill-rule:nonzero;stroke:none"
           id="path6107"
           inkscape:connector-curvature="0" />
      </g>
      <g
         id="g6109"
         transform="matrix(1.25,0,0,-1.25,196.64929,807.9932)"
         style="fill:#000000;fill-opacity:1">
        <path
           d="m 0,0 0,2.189 c 0,0.424 -0.115,0.67 -0.506,0.67 -0.512,0 -0.889,-0.54 -0.889,-1.217 l 0,-1.642 -0.732,0 0,3.4 0.698,0 c 0,-0.178 -0.014,-0.472 -0.048,-0.664 L -1.47,2.729 c 0.199,0.438 0.609,0.739 1.184,0.739 0.772,0 1.012,-0.486 1.012,-1.087 L 0.726,0 0,0 Z"
           style="fill:#000000;fill-opacity:1;fill-rule:nonzero;stroke:none"
           id="path6111"
           inkscape:connector-curvature="0" />
      </g>
      <g
         id="g6113"
         transform="matrix(1.25,0,0,-1.25,201.41429,804.47945)"
         style="fill:#000000;fill-opacity:1">
        <path
           d="m 0,0 c -0.185,0.041 -0.363,0.061 -0.54,0.061 -0.581,0 -0.978,-0.355 -0.978,-1.272 0,-0.684 0.212,-1.067 0.677,-1.067 C -0.3,-2.278 0,-1.635 0,-1.054 L 0,0 Z m 0.035,-2.812 c 0,0.179 0.013,0.445 0.048,0.637 l -0.014,0 c -0.184,-0.417 -0.582,-0.705 -1.108,-0.705 -0.835,0 -1.252,0.616 -1.252,1.601 0,1.17 0.677,1.922 1.778,1.922 0.164,0 0.328,-0.014 0.513,-0.028 l 0,1.567 0.726,0 0,-4.994 -0.691,0 z"
           style="fill:#000000;fill-opacity:1;fill-rule:nonzero;stroke:none"
           id="path6115"
           inkscape:connector-curvature="0" />
      </g>
      <g
         id="g6117"
         transform="matrix(1.25,0,0,-1.25,205.22054,804.3332)"
         style="fill:#000000;fill-opacity:1">
        <path
           d="m 0,0 c -0.411,0 -0.699,-0.301 -0.76,-0.759 l 1.444,0 C 0.697,-0.294 0.431,0 0,0 m 1.395,-1.272 -2.169,0 c -0.02,-0.787 0.33,-1.143 1.006,-1.143 0.349,0 0.711,0.083 0.992,0.22 L 1.292,-2.777 C 0.95,-2.921 0.533,-2.996 0.115,-2.996 c -1.059,0 -1.641,0.547 -1.641,1.744 0,1.026 0.561,1.792 1.553,1.792 0.972,0 1.388,-0.663 1.388,-1.47 0,-0.096 -0.006,-0.212 -0.02,-0.342"
           style="fill:#000000;fill-opacity:1;fill-rule:nonzero;stroke:none"
           id="path6119"
           inkscape:connector-curvature="0" />
      </g>
      <g
         id="g6121"
         transform="matrix(1.25,0,0,-1.25,210.19679,804.5557)"
         style="fill:#000000;fill-opacity:1">
        <path
           d="m 0,0 c -0.677,0.123 -1.004,-0.349 -1.004,-1.368 l 0,-1.382 -0.732,0 0,3.4 0.697,0 c 0,-0.192 -0.021,-0.493 -0.068,-0.753 l 0.014,0 c 0.15,0.459 0.491,0.883 1.128,0.821 L 0,0 Z"
           style="fill:#000000;fill-opacity:1;fill-rule:nonzero;stroke:none"
           id="path6123"
           inkscape:connector-curvature="0" />
      </g>
      <g
         id="g6125"
         transform="matrix(1.25,0,0,-1.25,212.92679,807.9932)"
         style="fill:#000000;fill-opacity:1">
        <path
           d="m 0,0 0,4.618 2.435,0 0,-0.623 -1.689,0 0,-1.313 1.607,0 0,-0.609 -1.607,0 0,-1.437 1.689,0 L 2.435,0 0,0 Z"
           style="fill:#000000;fill-opacity:1;fill-rule:nonzero;stroke:none"
           id="path6127"
           inkscape:connector-curvature="0" />
      </g>
      <g
         id="g6129"
         transform="matrix(1.25,0,0,-1.25,219.71679,804.4707)"
         style="fill:#000000;fill-opacity:1">
        <path
           d="m 0,0 c -0.178,0.041 -0.349,0.061 -0.54,0.061 -0.581,0 -0.978,-0.362 -0.978,-1.279 0,-0.684 0.212,-1.067 0.671,-1.067 C -0.3,-2.285 0,-1.642 0,-1.047 L 0,0 Z m 0,-4.487 0,1.662 c 0,0.171 0.007,0.417 0.049,0.629 l -0.014,0.007 c -0.178,-0.431 -0.582,-0.698 -1.06,-0.698 -0.808,0 -1.26,0.54 -1.26,1.594 0,1.177 0.664,1.929 1.82,1.929 0.437,0 0.835,-0.034 1.19,-0.096 l 0,-5.027 -0.725,0 z"
           style="fill:#000000;fill-opacity:1;fill-rule:nonzero;stroke:none"
           id="path6131"
           inkscape:connector-curvature="0" />
      </g>
      <g
         id="g6133"
         transform="matrix(1.25,0,0,-1.25,224.65179,807.9932)"
         style="fill:#000000;fill-opacity:1">
        <path
           d="M 0,0 C 0,0.178 0.014,0.472 0.047,0.664 L 0.04,0.67 c -0.198,-0.437 -0.608,-0.738 -1.183,-0.738 -0.772,0 -1.013,0.485 -1.013,1.087 l 0,2.381 0.726,0 0,-2.189 c 0,-0.424 0.116,-0.671 0.506,-0.671 0.513,0 0.889,0.541 0.889,1.218 l 0,1.642 0.732,0 0,-3.4 L 0,0 Z"
           style="fill:#000000;fill-opacity:1;fill-rule:nonzero;stroke:none"
           id="path6135"
           inkscape:connector-curvature="0" />
      </g>
      <g
         id="g6137"
         transform="matrix(1.25,0,0,-1.25,229.06554,806.06945)"
         style="fill:#000000;fill-opacity:1">
        <path
           d="m 0,0 c -1.067,0 -1.3,-0.322 -1.3,-0.616 0,-0.253 0.178,-0.417 0.465,-0.417 0.499,0 0.835,0.479 0.835,0.964 L 0,0 Z m 0.047,-1.539 c 0,0.219 0.007,0.444 0.035,0.629 l -0.007,0.007 c -0.164,-0.404 -0.589,-0.705 -1.129,-0.705 -0.581,0 -0.95,0.329 -0.95,0.869 0,0.78 0.779,1.231 2.004,1.231 l 0,0.219 c 0,0.424 -0.178,0.643 -0.711,0.643 -0.315,0 -0.725,-0.095 -1.013,-0.273 l -0.069,0.622 c 0.336,0.13 0.76,0.226 1.197,0.226 1.04,0 1.328,-0.452 1.328,-1.149 l 0,-1.389 c 0,-0.294 0.007,-0.643 0.021,-0.93 l -0.706,0 z"
           style="fill:#000000;fill-opacity:1;fill-rule:nonzero;stroke:none"
           id="path6139"
           inkscape:connector-curvature="0" />
      </g>
      <path
         d="m 231.33304,801.75195 0.915,0 0,6.24125 -0.915,0 0,-6.24125 z"
         style="fill:#000000;fill-opacity:1;fill-rule:nonzero;stroke:none"
         id="path6141"
         inkscape:connector-curvature="0" />
      <path
         d="m 233.58179,803.74445 0.915,0 0,4.25 -0.915,0 0,-4.25 z m 0.46125,-0.63375 c -0.325,0 -0.59,-0.25625 -0.59,-0.5725 0,-0.31625 0.265,-0.57375 0.59,-0.57375 0.31625,0 0.58125,0.24875 0.58125,0.57375 0,0.31625 -0.265,0.5725 -0.58125,0.5725"
         style="fill:#000000;fill-opacity:1;fill-rule:nonzero;stroke:none"
         id="path6143"
         inkscape:connector-curvature="0" />
      <g
         id="g6145"
         transform="matrix(1.25,0,0,-1.25,237.19054,808.06945)"
         style="fill:#000000;fill-opacity:1">
        <path
           d="m 0,0 c -0.725,0 -0.944,0.281 -0.944,1.04 l 0,1.853 -0.65,0 0,0.568 0.65,0 0,1.081 0.725,0.198 0,-1.279 0.896,0 0,-0.568 -0.889,0 0,-1.628 c 0,-0.506 0.102,-0.642 0.444,-0.642 0.15,0 0.315,0.02 0.445,0.054 l 0,-0.602 C 0.478,0.034 0.225,0 0,0"
           style="fill:#000000;fill-opacity:1;fill-rule:nonzero;stroke:none"
           id="path6147"
           inkscape:connector-curvature="0" />
      </g>
      <g
         id="g6149"
         transform="matrix(1.25,0,0,-1.25,240.73054,808.4032)"
         style="fill:#000000;fill-opacity:1">
        <path
           d="m 0,0 c -0.397,-1.06 -0.732,-1.389 -1.499,-1.389 -0.136,0 -0.321,0.021 -0.458,0.048 l 0.056,0.643 c 0.15,-0.055 0.287,-0.075 0.444,-0.075 0.342,0 0.533,0.157 0.746,0.739 l 0.136,0.362 -1.272,3.4 0.821,0 0.554,-1.553 c 0.11,-0.301 0.191,-0.602 0.266,-0.889 l 0.007,0 c 0.069,0.274 0.213,0.711 0.335,1.06 l 0.486,1.382 0.788,0 L 0,0 Z"
           style="fill:#000000;fill-opacity:1;fill-rule:nonzero;stroke:none"
           id="path6151"
           inkscape:connector-curvature="0" />
      </g>
      <g
         id="g6153"
         transform="matrix(1.25,0,0,-1.25,119.36679,816.33195)"
         style="fill:#000000;fill-opacity:1">
        <path
           d="m 0,0 c -1.067,0 -1.3,-0.322 -1.3,-0.616 0,-0.253 0.178,-0.417 0.465,-0.417 0.5,0 0.835,0.479 0.835,0.965 L 0,0 Z m 0.048,-1.539 c 0,0.219 0.007,0.444 0.034,0.629 l -0.007,0.007 c -0.164,-0.404 -0.588,-0.705 -1.129,-0.705 -0.581,0 -0.95,0.329 -0.95,0.869 0,0.78 0.779,1.231 2.004,1.231 l 0,0.219 c 0,0.424 -0.178,0.643 -0.711,0.643 -0.315,0 -0.725,-0.096 -1.013,-0.274 l -0.068,0.623 c 0.335,0.13 0.759,0.226 1.197,0.226 1.04,0 1.327,-0.452 1.327,-1.15 l 0,-1.388 c 0,-0.294 0.007,-0.643 0.021,-0.93 l -0.705,0 z"
           style="fill:#000000;fill-opacity:1;fill-rule:nonzero;stroke:none"
           id="path6155"
           inkscape:connector-curvature="0" />
      </g>
      <g
         id="g6157"
         transform="matrix(1.25,0,0,-1.25,124.29304,818.25695)"
         style="fill:#000000;fill-opacity:1">
        <path
           d="m 0,0 0,2.189 c 0,0.424 -0.116,0.67 -0.506,0.67 -0.513,0 -0.89,-0.54 -0.89,-1.217 l 0,-1.642 -0.731,0 0,3.4 0.697,0 c 0,-0.178 -0.013,-0.472 -0.048,-0.664 l 0.007,-0.007 c 0.199,0.438 0.609,0.739 1.184,0.739 0.773,0 1.012,-0.485 1.012,-1.087 L 0.725,0 0,0 Z"
           style="fill:#000000;fill-opacity:1;fill-rule:nonzero;stroke:none"
           id="path6159"
           inkscape:connector-curvature="0" />
      </g>
      <g
         id="g6161"
         transform="matrix(1.25,0,0,-1.25,129.05679,814.74195)"
         style="fill:#000000;fill-opacity:1">
        <path
           d="m 0,0 c -0.185,0.041 -0.363,0.062 -0.54,0.062 -0.582,0 -0.979,-0.356 -0.979,-1.273 0,-0.684 0.212,-1.067 0.678,-1.067 0.54,0 0.841,0.643 0.841,1.224 L 0,0 Z m 0.034,-2.812 c 0,0.178 0.014,0.445 0.048,0.636 l -0.014,0 C -0.116,-2.593 -0.513,-2.88 -1.04,-2.88 c -0.834,0 -1.252,0.616 -1.252,1.601 0,1.169 0.678,1.922 1.779,1.922 0.164,0 0.328,-0.014 0.513,-0.028 l 0,1.567 0.725,0 0,-4.994 -0.691,0 z"
           style="fill:#000000;fill-opacity:1;fill-rule:nonzero;stroke:none"
           id="path6163"
           inkscape:connector-curvature="0" />
      </g>
      <g
         id="g6165"
         transform="matrix(1.25,0,0,-1.25,134.59804,818.3332)"
         style="fill:#000000;fill-opacity:1">
        <path
           d="m 0,0 c -0.725,0 -0.944,0.281 -0.944,1.04 l 0,1.854 -0.65,0 0,0.567 0.65,0 0,1.081 0.725,0.199 0,-1.28 0.896,0 0,-0.567 -0.889,0 0,-1.628 c 0,-0.506 0.103,-0.643 0.445,-0.643 0.15,0 0.314,0.02 0.444,0.054 l 0,-0.601 C 0.479,0.034 0.226,0 0,0"
           style="fill:#000000;fill-opacity:1;fill-rule:nonzero;stroke:none"
           id="path6167"
           inkscape:connector-curvature="0" />
      </g>
      <g
         id="g6169"
         transform="matrix(1.25,0,0,-1.25,139.08679,818.25695)"
         style="fill:#000000;fill-opacity:1">
        <path
           d="m 0,0 0,2.189 c 0,0.424 -0.116,0.67 -0.506,0.67 -0.513,0 -0.889,-0.54 -0.889,-1.224 l 0,-1.635 -0.732,0 0,4.994 0.732,0 0,-1.539 c 0,-0.212 -0.014,-0.5 -0.062,-0.684 l 0.014,-0.007 c 0.198,0.424 0.602,0.704 1.156,0.704 0.773,0 1.012,-0.485 1.012,-1.087 L 0.725,0 0,0 Z"
           style="fill:#000000;fill-opacity:1;fill-rule:nonzero;stroke:none"
           id="path6171"
           inkscape:connector-curvature="0" />
      </g>
      <g
         id="g6173"
         transform="matrix(1.25,0,0,-1.25,142.89304,814.59695)"
         style="fill:#000000;fill-opacity:1">
        <path
           d="m 0,0 c -0.41,0 -0.698,-0.301 -0.759,-0.759 l 1.443,0 C 0.698,-0.294 0.431,0 0,0 m 1.395,-1.272 -2.168,0 c -0.021,-0.787 0.329,-1.142 1.006,-1.142 0.349,0 0.711,0.082 0.991,0.219 L 1.293,-2.777 C 0.951,-2.921 0.534,-2.996 0.116,-2.996 c -1.06,0 -1.641,0.547 -1.641,1.744 0,1.027 0.56,1.793 1.552,1.793 0.972,0 1.389,-0.664 1.389,-1.471 0,-0.096 -0.007,-0.212 -0.021,-0.342"
           style="fill:#000000;fill-opacity:1;fill-rule:nonzero;stroke:none"
           id="path6175"
           inkscape:connector-curvature="0" />
      </g>
      <g
         id="g6177"
         transform="matrix(1.25,0,0,-1.25,147.56304,818.25695)"
         style="fill:#000000;fill-opacity:1">
        <path
           d="m 0,0 0,4.618 2.435,0 0,-0.623 -1.69,0 0,-1.313 1.608,0 0,-0.609 -1.608,0 0,-1.437 1.69,0 L 2.435,0 0,0 Z"
           style="fill:#000000;fill-opacity:1;fill-rule:nonzero;stroke:none"
           id="path6179"
           inkscape:connector-curvature="0" />
      </g>
      <g
         id="g6181"
         transform="matrix(1.25,0,0,-1.25,157.04679,818.25695)"
         style="fill:#000000;fill-opacity:1">
        <path
           d="m 0,0 0,2.169 c 0,0.424 -0.103,0.69 -0.493,0.69 -0.437,0 -0.875,-0.485 -0.875,-1.231 l 0,-1.628 -0.718,0 0,2.176 c 0,0.382 -0.082,0.683 -0.493,0.683 -0.465,0 -0.869,-0.519 -0.869,-1.231 l 0,-1.628 -0.732,0 0,3.4 0.698,0 c 0,-0.178 -0.014,-0.465 -0.048,-0.664 l 0.014,-0.007 c 0.198,0.452 0.622,0.739 1.149,0.739 0.67,0 0.889,-0.431 0.944,-0.732 0.144,0.329 0.52,0.732 1.136,0.732 0.649,0 1.012,-0.348 1.012,-1.121 L 0.725,0 0,0 Z"
           style="fill:#000000;fill-opacity:1;fill-rule:nonzero;stroke:none"
           id="path6183"
           inkscape:connector-curvature="0" />
      </g>
      <g
         id="g6185"
         transform="matrix(1.25,0,0,-1.25,161.25554,814.67445)"
         style="fill:#000000;fill-opacity:1">
        <path
           d="m 0,0 c -0.547,0 -0.841,-0.643 -0.841,-1.225 l 0,-1.046 c 0.157,-0.048 0.328,-0.068 0.533,-0.068 0.582,0 0.978,0.355 0.978,1.272 C 0.67,-0.383 0.458,0 0,0 m -0.328,-2.914 c -0.192,0 -0.336,0.007 -0.513,0.041 l 0,-1.662 -0.732,0 0,5.069 0.691,0 c 0,-0.178 -0.007,-0.452 -0.042,-0.637 l 0.014,0 c 0.192,0.431 0.582,0.705 1.101,0.705 0.808,0 1.252,-0.575 1.252,-1.6 0,-1.198 -0.636,-1.916 -1.771,-1.916"
           style="fill:#000000;fill-opacity:1;fill-rule:nonzero;stroke:none"
           id="path6187"
           inkscape:connector-curvature="0" />
      </g>
      <g
         id="g6189"
         transform="matrix(1.25,0,0,-1.25,165.74679,814.6907)"
         style="fill:#000000;fill-opacity:1">
        <path
           d="m 0,0 c -0.445,0 -0.876,-0.342 -0.876,-1.122 0,-0.766 0.301,-1.17 0.869,-1.17 0.472,0 0.869,0.37 0.869,1.156 C 0.862,-0.41 0.581,0 0,0 m -0.075,-2.921 c -0.944,0 -1.56,0.527 -1.56,1.724 0,1.026 0.664,1.812 1.696,1.812 0.91,0 1.553,-0.506 1.553,-1.703 0,-1.047 -0.684,-1.833 -1.689,-1.833"
           style="fill:#000000;fill-opacity:1;fill-rule:nonzero;stroke:none"
           id="path6191"
           inkscape:connector-curvature="0" />
      </g>
      <g
         id="g6193"
         transform="matrix(1.25,0,0,-1.25,173.38929,818.25695)"
         style="fill:#000000;fill-opacity:1">
        <path
           d="m 0,0 -0.807,0 -0.589,1.778 c -0.075,0.226 -0.136,0.459 -0.198,0.719 l -0.007,0 C -1.669,2.196 -1.744,1.929 -1.833,1.642 L -2.346,0 l -0.773,0 -1.047,3.4 0.8,0 0.452,-1.58 c 0.089,-0.322 0.185,-0.643 0.253,-0.951 l 0.007,0 c 0.068,0.335 0.15,0.636 0.239,0.93 l 0.506,1.601 0.739,0 0.513,-1.573 c 0.13,-0.411 0.199,-0.664 0.267,-0.958 l 0.007,0 c 0.068,0.315 0.137,0.581 0.239,0.923 L 0.328,3.4 1.088,3.4 0,0 Z"
           style="fill:#000000;fill-opacity:1;fill-rule:nonzero;stroke:none"
           id="path6195"
           inkscape:connector-curvature="0" />
      </g>
      <g
         id="g6197"
         transform="matrix(1.25,0,0,-1.25,177.03304,814.59695)"
         style="fill:#000000;fill-opacity:1">
        <path
           d="m 0,0 c -0.41,0 -0.698,-0.301 -0.759,-0.759 l 1.443,0 C 0.698,-0.294 0.431,0 0,0 m 1.395,-1.272 -2.168,0 c -0.021,-0.787 0.328,-1.142 1.006,-1.142 0.349,0 0.711,0.082 0.992,0.219 L 1.293,-2.777 C 0.951,-2.921 0.534,-2.996 0.116,-2.996 c -1.06,0 -1.642,0.547 -1.642,1.744 0,1.027 0.562,1.793 1.553,1.793 0.972,0 1.389,-0.664 1.389,-1.471 0,-0.096 -0.007,-0.212 -0.021,-0.342"
           style="fill:#000000;fill-opacity:1;fill-rule:nonzero;stroke:none"
           id="path6199"
           inkscape:connector-curvature="0" />
      </g>
      <g
         id="g6201"
         transform="matrix(1.25,0,0,-1.25,182.01054,814.8182)"
         style="fill:#000000;fill-opacity:1">
        <path
           d="m 0,0 c -0.677,0.123 -1.006,-0.349 -1.006,-1.369 l 0,-1.381 -0.731,0 0,3.399 0.697,0 c 0,-0.191 -0.02,-0.492 -0.068,-0.752 l 0.014,0 c 0.15,0.458 0.492,0.882 1.128,0.821 L 0,0 Z"
           style="fill:#000000;fill-opacity:1;fill-rule:nonzero;stroke:none"
           id="path6203"
           inkscape:connector-curvature="0" />
      </g>
      <g
         id="g6205"
         transform="matrix(1.25,0,0,-1.25,188.09929,818.25695)"
         style="fill:#000000;fill-opacity:1">
        <path
           d="m 0,0 0,2.169 c 0,0.424 -0.103,0.69 -0.493,0.69 -0.437,0 -0.875,-0.485 -0.875,-1.231 l 0,-1.628 -0.718,0 0,2.176 c 0,0.382 -0.082,0.683 -0.493,0.683 -0.465,0 -0.869,-0.519 -0.869,-1.231 l 0,-1.628 -0.731,0 0,3.4 0.697,0 c 0,-0.178 -0.014,-0.465 -0.048,-0.664 l 0.014,-0.007 c 0.198,0.452 0.622,0.739 1.149,0.739 0.67,0 0.89,-0.431 0.944,-0.732 0.144,0.329 0.52,0.732 1.136,0.732 0.65,0 1.012,-0.348 1.012,-1.121 L 0.725,0 0,0 Z"
           style="fill:#000000;fill-opacity:1;fill-rule:nonzero;stroke:none"
           id="path6207"
           inkscape:connector-curvature="0" />
      </g>
      <g
         id="g6209"
         transform="matrix(1.25,0,0,-1.25,191.90554,814.59695)"
         style="fill:#000000;fill-opacity:1">
        <path
           d="m 0,0 c -0.41,0 -0.697,-0.301 -0.76,-0.759 l 1.445,0 C 0.697,-0.294 0.431,0 0,0 m 1.396,-1.272 -2.17,0 c -0.019,-0.787 0.329,-1.142 1.006,-1.142 0.35,0 0.712,0.082 0.993,0.219 l 0.068,-0.582 c -0.342,-0.144 -0.76,-0.219 -1.176,-0.219 -1.061,0 -1.642,0.547 -1.642,1.744 0,1.027 0.561,1.793 1.553,1.793 0.971,0 1.389,-0.664 1.389,-1.471 0,-0.096 -0.007,-0.212 -0.021,-0.342"
           style="fill:#000000;fill-opacity:1;fill-rule:nonzero;stroke:none"
           id="path6211"
           inkscape:connector-curvature="0" />
      </g>
      <g
         id="g6213"
         transform="matrix(1.25,0,0,-1.25,197.37179,818.25695)"
         style="fill:#000000;fill-opacity:1">
        <path
           d="m 0,0 0,2.189 c 0,0.424 -0.117,0.67 -0.507,0.67 -0.512,0 -0.889,-0.54 -0.889,-1.217 l 0,-1.642 -0.732,0 0,3.4 0.697,0 c 0,-0.178 -0.013,-0.472 -0.047,-0.664 l 0.007,-0.007 c 0.199,0.438 0.609,0.739 1.184,0.739 0.772,0 1.012,-0.485 1.012,-1.087 L 0.725,0 0,0 Z"
           style="fill:#000000;fill-opacity:1;fill-rule:nonzero;stroke:none"
           id="path6215"
           inkscape:connector-curvature="0" />
      </g>
      <g
         id="g6217"
         transform="matrix(1.25,0,0,-1.25,200.90304,818.3332)"
         style="fill:#000000;fill-opacity:1">
        <path
           d="m 0,0 c -0.725,0 -0.943,0.281 -0.943,1.04 l 0,1.854 -0.65,0 0,0.567 0.65,0 0,1.081 0.725,0.199 0,-1.28 0.896,0 0,-0.567 -0.89,0 0,-1.628 c 0,-0.506 0.102,-0.643 0.445,-0.643 0.15,0 0.314,0.02 0.445,0.054 l 0,-0.601 C 0.479,0.034 0.226,0 0,0"
           style="fill:#000000;fill-opacity:1;fill-rule:nonzero;stroke:none"
           id="path6219"
           inkscape:connector-curvature="0" />
      </g>
      <g
         id="g6221"
         transform="matrix(1.25,0,0,-1.25,206.41054,814.6907)"
         style="fill:#000000;fill-opacity:1">
        <path
           d="m 0,0 c -0.444,0 -0.876,-0.342 -0.876,-1.122 0,-0.766 0.301,-1.17 0.869,-1.17 0.472,0 0.868,0.37 0.868,1.156 C 0.861,-0.41 0.581,0 0,0 m -0.075,-2.921 c -0.944,0 -1.56,0.527 -1.56,1.724 0,1.026 0.664,1.812 1.696,1.812 0.91,0 1.553,-0.506 1.553,-1.703 0,-1.047 -0.683,-1.833 -1.689,-1.833"
           style="fill:#000000;fill-opacity:1;fill-rule:nonzero;stroke:none"
           id="path6223"
           inkscape:connector-curvature="0" />
      </g>
      <g
         id="g6225"
         transform="matrix(1.25,0,0,-1.25,211.94179,812.78445)"
         style="fill:#000000;fill-opacity:1">
        <path
           d="m 0,0 c -0.15,0.048 -0.314,0.068 -0.464,0.068 -0.438,0 -0.636,-0.239 -0.636,-0.773 l 0,-0.273 0.882,0 0,-0.568 -0.882,0 0,-2.832 -0.725,0 0,2.832 -0.65,0 0,0.568 0.65,0 0,0.26 c 0,0.93 0.444,1.382 1.326,1.382 0.192,0 0.377,-0.021 0.554,-0.062 L 0,0 Z"
           style="fill:#000000;fill-opacity:1;fill-rule:nonzero;stroke:none"
           id="path6227"
           inkscape:connector-curvature="0" />
      </g>
      <g
         id="g6229"
         transform="matrix(1.25,0,0,-1.25,219.71554,818.25695)"
         style="fill:#000000;fill-opacity:1">
        <path
           d="m 0,0 -0.917,0 -0.786,2.853 c -0.082,0.28 -0.13,0.574 -0.178,0.868 l -0.007,0 C -1.922,3.434 -1.977,3.154 -2.052,2.866 L -2.832,0 l -0.875,0 -1.198,4.618 0.795,0 0.711,-2.805 c 0.082,-0.301 0.136,-0.602 0.178,-0.91 l 0.007,0 c 0.047,0.301 0.102,0.595 0.184,0.875 l 0.787,2.84 0.814,0 0.807,-2.846 c 0.068,-0.246 0.137,-0.554 0.184,-0.848 l 0.007,0 c 0.049,0.287 0.096,0.554 0.164,0.807 l 0.718,2.887 0.746,0 L 0,0 Z"
           style="fill:#000000;fill-opacity:1;fill-rule:nonzero;stroke:none"
           id="path6231"
           inkscape:connector-curvature="0" />
      </g>
      <g
         id="g6233"
         transform="matrix(1.25,0,0,-1.25,223.46304,814.6907)"
         style="fill:#000000;fill-opacity:1">
        <path
           d="m 0,0 c -0.445,0 -0.876,-0.342 -0.876,-1.122 0,-0.766 0.301,-1.17 0.869,-1.17 0.472,0 0.868,0.37 0.868,1.156 C 0.861,-0.41 0.581,0 0,0 m -0.076,-2.921 c -0.944,0 -1.559,0.527 -1.559,1.724 0,1.026 0.663,1.812 1.696,1.812 0.91,0 1.553,-0.506 1.553,-1.703 0,-1.047 -0.685,-1.833 -1.69,-1.833"
           style="fill:#000000;fill-opacity:1;fill-rule:nonzero;stroke:none"
           id="path6235"
           inkscape:connector-curvature="0" />
      </g>
      <g
         id="g6237"
         transform="matrix(1.25,0,0,-1.25,231.69804,818.25695)"
         style="fill:#000000;fill-opacity:1">
        <path
           d="m 0,0 0,2.169 c 0,0.424 -0.103,0.69 -0.492,0.69 -0.439,0 -0.876,-0.485 -0.876,-1.231 l 0,-1.628 -0.718,0 0,2.176 c 0,0.382 -0.082,0.683 -0.493,0.683 -0.464,0 -0.868,-0.519 -0.868,-1.231 l 0,-1.628 -0.733,0 0,3.4 0.698,0 c 0,-0.178 -0.013,-0.465 -0.047,-0.664 l 0.013,-0.007 c 0.199,0.452 0.623,0.739 1.149,0.739 0.671,0 0.889,-0.431 0.945,-0.732 0.143,0.329 0.519,0.732 1.135,0.732 0.65,0 1.012,-0.348 1.012,-1.121 L 0.725,0 0,0 Z"
           style="fill:#000000;fill-opacity:1;fill-rule:nonzero;stroke:none"
           id="path6239"
           inkscape:connector-curvature="0" />
      </g>
      <g
         id="g6241"
         transform="matrix(1.25,0,0,-1.25,235.50554,814.59695)"
         style="fill:#000000;fill-opacity:1">
        <path
           d="m 0,0 c -0.411,0 -0.697,-0.301 -0.76,-0.759 l 1.443,0 C 0.697,-0.294 0.431,0 0,0 m 1.395,-1.272 -2.169,0 c -0.02,-0.787 0.329,-1.142 1.006,-1.142 0.349,0 0.711,0.082 0.992,0.219 L 1.293,-2.777 C 0.95,-2.921 0.533,-2.996 0.117,-2.996 c -1.061,0 -1.642,0.547 -1.642,1.744 0,1.027 0.56,1.793 1.553,1.793 0.971,0 1.387,-0.664 1.387,-1.471 0,-0.096 -0.006,-0.212 -0.02,-0.342"
           style="fill:#000000;fill-opacity:1;fill-rule:nonzero;stroke:none"
           id="path6243"
           inkscape:connector-curvature="0" />
      </g>
      <g
         id="g6245"
         transform="matrix(1.25,0,0,-1.25,240.96929,818.25695)"
         style="fill:#000000;fill-opacity:1">
        <path
           d="m 0,0 0,2.189 c 0,0.424 -0.115,0.67 -0.506,0.67 -0.512,0 -0.889,-0.54 -0.889,-1.217 l 0,-1.642 -0.732,0 0,3.4 0.698,0 c 0,-0.178 -0.014,-0.472 -0.048,-0.664 L -1.47,2.729 c 0.198,0.438 0.609,0.739 1.182,0.739 0.774,0 1.013,-0.485 1.013,-1.087 L 0.725,0 0,0 Z"
           style="fill:#000000;fill-opacity:1;fill-rule:nonzero;stroke:none"
           id="path6247"
           inkscape:connector-curvature="0" />
      </g>
      <g
         id="g6249"
         transform="matrix(1.25,0,0,-1.25,222.05304,745.32445)"
         style="fill:#449ecc;fill-opacity:1">
        <path
           d="m 0,0 c 2.623,0.113 5.11,0.472 7.364,1.018 l 0,5.14 L 0,6.158 0,0 Z"
           style="fill:#449ecc;fill-opacity:1;fill-rule:nonzero;stroke:none"
           id="path6251"
           inkscape:connector-curvature="0" />
      </g>
      <g
         id="g6253"
         transform="matrix(1.25,0,0,-1.25,240.57929,744.91445)"
         style="fill:#449ecc;fill-opacity:1">
        <path
           d="m 0,0 c -1.299,-0.658 -2.742,-1.226 -4.279,-1.714 l 0,-5.686 c 2.428,1.786 4.451,4.081 5.928,6.726 l 0,1.614 C 1.125,0.611 0.578,0.295 0,0"
           style="fill:#449ecc;fill-opacity:1;fill-rule:nonzero;stroke:none"
           id="path6255"
           inkscape:connector-curvature="0" />
      </g>
      <g
         id="g6257"
         transform="matrix(1.25,0,0,-1.25,231.26054,756.58195)"
         style="fill:#449ecc;fill-opacity:1">
        <path
           d="m 0,0 c 0,0.007 -0.002,0.015 -0.002,0.021 l 0,6.74 C -2.301,6.258 -4.778,5.946 -7.366,5.837 l 0,-7.91 C -4.743,-1.829 -2.256,-1.114 0,0"
           style="fill:#449ecc;fill-opacity:1;fill-rule:nonzero;stroke:none"
           id="path6259"
           inkscape:connector-curvature="0" />
      </g>
      <g
         id="g6261"
         transform="matrix(1.25,0,0,-1.25,235.23054,737.62695)"
         style="fill:#449ecc;fill-opacity:1">
        <path
           d="m 0,0 0,-4.193 c 2.444,0.873 4.477,1.975 5.927,3.19 L 5.927,0 0,0 Z"
           style="fill:#449ecc;fill-opacity:1;fill-rule:nonzero;stroke:none"
           id="path6263"
           inkscape:connector-curvature="0" />
      </g>
      <g
         id="g6265"
         transform="matrix(1.25,0,0,-1.25,217.25554,737.62695)"
         style="fill:#8cbedc;fill-opacity:1">
        <path
           d="m 0,0 -7.69,0 0,-5.065 C -5.349,-5.651 -2.747,-6.032 0,-6.152 L 0,0 Z"
           style="fill:#8cbedc;fill-opacity:1;fill-rule:nonzero;stroke:none"
           id="path6267"
           inkscape:connector-curvature="0" />
      </g>
      <g
         id="g6269"
         transform="matrix(1.25,0,0,-1.25,203.66804,742.73445)"
         style="fill:#8cbedc;fill-opacity:1">
        <path
           d="m 0,0 0,4.086 -5.583,0 0,-1.004 C -4.744,2.374 -3.708,1.699 -2.508,1.089 -1.736,0.696 -0.896,0.333 0,0"
           style="fill:#8cbedc;fill-opacity:1;fill-rule:nonzero;stroke:none"
           id="path6271"
           inkscape:connector-curvature="0" />
      </g>
      <g
         id="g6273"
         transform="matrix(1.25,0,0,-1.25,217.25554,749.27695)"
         style="fill:#8cbedc;fill-opacity:1">
        <path
           d="m 0,0 c -2.706,0.119 -5.297,0.45 -7.69,0.992 l 0,-6.682 C -5.346,-6.896 -2.748,-7.666 0,-7.918 L 0,0 Z"
           style="fill:#8cbedc;fill-opacity:1;fill-rule:nonzero;stroke:none"
           id="path6275"
           inkscape:connector-curvature="0" />
      </g>
      <g
         id="g6277"
         transform="matrix(1.25,0,0,-1.25,203.66804,753.86945)"
         style="fill:#8cbedc;fill-opacity:1">
        <path
           d="m 0,0 0,5.54 c -2.089,0.686 -3.965,1.55 -5.583,2.566 l 0,-1.651 C -4.175,3.939 -2.271,1.743 0,0"
           style="fill:#8cbedc;fill-opacity:1;fill-rule:nonzero;stroke:none"
           id="path6279"
           inkscape:connector-curvature="0" />
      </g>
      <g
         id="g6281"
         transform="matrix(1.25,0,0,-1.25,207.60054,784.2132)"
         style="fill:#8cbedc;fill-opacity:1">
        <path
           d="m 0,0 0,3.587 7.724,0 0,0.77 0,2.813 -7.725,0 0,3.588 7.725,0 0,6.079 C 1.157,17.35 -4.675,20.482 -8.73,25.193 l 0,-31.416 16.454,0 L 7.724,0 0,0 Z"
           style="fill:#8cbedc;fill-opacity:1;fill-rule:nonzero;stroke:none"
           id="path6283"
           inkscape:connector-curvature="0" />
      </g>
      <g
         id="g6285"
         transform="matrix(1.25,0,0,-1.25,222.05304,763.16695)"
         style="fill:#449ecc;fill-opacity:1">
        <path
           d="m 0,0 0,-6.079 7.404,0 0,-3.588 -7.404,0 0,-2.814 0,-0.769 7.404,0 0,-3.587 -7.404,0 0,-6.223 16.47,0 0,31.431 C 12.413,3.655 6.578,0.517 0,0"
           style="fill:#449ecc;fill-opacity:1;fill-rule:nonzero;stroke:none"
           id="path6287"
           inkscape:connector-curvature="0" />
      </g>
    </g>
  </g>
</svg>
